<svg id="Capa_1" data-name="Capa 1" xmlns="http://www.w3.org/2000/svg" xmlns:xlink="http://www.w3.org/1999/xlink" viewBox="0 0 484 168"><defs><style>.cls-1{fill:none;}.cls-2{fill:#f4f4f4;}.cls-3{clip-path:url(#clip-path);}.cls-4{clip-path:url(#clip-path-2);}.cls-20,.cls-5{fill:#a8559c;}.cls-24,.cls-6{fill:#59b5e5;}.cls-26,.cls-7{fill:#47ae4c;}.cls-15,.cls-22,.cls-8{fill:#eb5b2a;}.cls-19,.cls-9{fill:#e42285;}.cls-10,.cls-18{fill:#833089;}.cls-11,.cls-23{fill:#0d9ad7;}.cls-12,.cls-25{fill:#8ec044;}.cls-13,.cls-21{fill:#f6a421;}.cls-14,.cls-17{fill:#e7352a;}.cls-15,.cls-17,.cls-18,.cls-19,.cls-20,.cls-21,.cls-22,.cls-23,.cls-24,.cls-25,.cls-26,.cls-27{isolation:isolate;}.cls-15{font-size:18.56px;font-family:ArialMT, Arial;}.cls-16{fill:#fff;}.cls-17,.cls-18,.cls-19,.cls-20,.cls-21,.cls-22,.cls-23,.cls-24,.cls-25,.cls-26{font-size:14.38px;font-family:Arial-BoldMT, Arial;font-weight:700;}</style><clipPath id="clip-path"><rect class="cls-1" x="-38.64" y="-518" width="595.28" height="841.89"/></clipPath><clipPath id="clip-path-2"><rect class="cls-1" x="13.06" y="10" width="458.06" height="149.16"/></clipPath></defs><rect class="cls-2" x="-2.25" y="-6.4" width="491.84" height="180.24"/><g class="cls-3"><g class="cls-4"><path class="cls-5" d="M87.25,82.67l-10.12-72A78,78,0,0,1,87.25,10Z"/><path class="cls-6" d="M87.25,82.67,68.44,12.48a67.58,67.58,0,0,1,8.69-1.77Z"/><path class="cls-7" d="M87.25,82.67,60,15.29a69.28,69.28,0,0,1,8.42-2.81Z"/><path class="cls-8" d="M87.25,82.67,37.69,29.52A68.5,68.5,0,0,1,60,15.29Z"/><path class="cls-9" d="M87.25,82.67,18.54,59A69,69,0,0,1,37.69,29.52Z"/><path class="cls-10" d="M87.25,82.67l-69.86,20A69.06,69.06,0,0,1,18.54,59Z"/><path class="cls-11" d="M87.25,82.67,49.82,145a71,71,0,0,1-32.43-42.3Z"/><path class="cls-12" d="M87.25,82.67,118,148.53c-22.81,10.63-46.57,9.39-68.14-3.57Z"/><path class="cls-13" d="M87.25,82.67l72,10.11A71.3,71.3,0,0,1,118,148.53Z"/><path class="cls-14" d="M87.25,82.67V10a72.66,72.66,0,0,1,72.66,72.66h0a63.41,63.41,0,0,1-.7,10.11Z"/></g><text class="cls-15" transform="translate(65.04 90.26)">2</text><text class="cls-15" transform="translate(74.56 90.26)">0</text><text class="cls-15" transform="translate(83.98 90.26)">17*</text><polygon class="cls-16" points="133.32 49.76 134.92 51.36 134.92 49.76 133.32 49.76"/><g class="cls-4"><path class="cls-16" d="M130.85,49.76h-2.09l2.65,2.65h-2.47l-2.65-2.65h-2.22l2.65,2.65h-2.47L122,50.12a.41.41,0,0,0,0,.22v7.2a.72.72,0,0,0,.71.73H134.2a.72.72,0,0,0,.72-.72h0V52.41H133.5Z"/><polygon class="cls-16" points="132.74 45.43 130.54 45.75 128.29 48.76 130.49 48.44 132.74 45.43"/><polygon class="cls-16" points="128.09 46.1 126.02 46.41 123.78 49.41 125.85 49.11 128.09 46.1"/><path class="cls-16" d="M134.77,47.23l-.19-1.34-1.65,2.2,1.35-.2a.58.58,0,0,0,.49-.66h0"/><path class="cls-16" d="M123.58,46.76l-1.4.2a.58.58,0,0,0-.49.66h0l.18,1.23V49l.58-.77Z"/></g><text class="cls-17" transform="translate(178.92 40.05)">28%</text><polygon class="cls-14" points="183.31 14.82 183.92 15.47 183.92 14.82 183.31 14.82"/><g class="cls-4"><path class="cls-14" d="M182.38,14.82h-.79l1,1.08h-.93l-1-1.08h-.84l1,1.08h-.93L179,15a.14.14,0,0,0,0,.09V18a.28.28,0,0,0,.27.3h4.36a.3.3,0,0,0,.28-.3V15.9h-.54Z"/><polygon class="cls-14" points="183.09 13.06 182.26 13.19 181.41 14.41 182.24 14.29 183.09 13.06"/><polygon class="cls-14" points="181.34 13.34 180.56 13.46 179.71 14.68 180.49 14.56 181.34 13.34"/><path class="cls-14" d="M183.86,13.8l-.07-.55-.63.89.51-.08a.23.23,0,0,0,.19-.26"/><path class="cls-14" d="M179.64,13.6l-.53.08a.24.24,0,0,0-.19.27l.07.5v.07l.22-.31Z"/><path class="cls-16" d="M39.72,78.56l-2.08-2.08a.44.44,0,0,0-.31-.13.48.48,0,0,0-.32.13h0l.59.6a.19.19,0,0,1,0,.25l0,0a.19.19,0,0,1-.26,0l-.6-.6-.52.53.59.59a.19.19,0,0,1,0,.25l0,0a.15.15,0,0,1-.13,0,.17.17,0,0,1-.14,0l-.59-.6-.53.53,1.12,1.12a.19.19,0,0,1,0,.25l0,0a.17.17,0,0,1-.24,0l0,0-1.13-1.12-.52.52,2.7,2.73,2.41-2.42a.44.44,0,0,0,0-.61l0,0"/><path class="cls-16" d="M30.64,82.85,31.77,84a.2.2,0,0,1,0,.27.2.2,0,0,1-.14.06.16.16,0,0,1-.13-.06l-1.13-1.12-.52.52.59.6a.19.19,0,0,1,0,.25l0,0a.19.19,0,0,1-.26,0l-.6-.6-.61.62.59.59a.2.2,0,0,1,0,.27.16.16,0,0,1-.13.06.2.2,0,0,1-.14-.06l-.59-.59h0a.44.44,0,0,0-.13.31.48.48,0,0,0,.13.32l2.08,2.08a.45.45,0,0,0,.63,0l2.42-2.41L31.09,82.4Z"/><path class="cls-16" d="M33.43,78.54a.42.42,0,0,0-.14-.09L30,77.32a.38.38,0,0,0-.48.24.33.33,0,0,0,0,.24l1.13,3.3a.42.42,0,0,0,.09.14L36,86.53a1.91,1.91,0,0,0,2.78-2.62l-.08-.08Zm-.19.88L37.79,84l-.4.4-4.55-4.55Zm-2.54-.48.44-.43,1.44.5L31.2,80.39Zm5.46,6.66-4.55-4.55.4-.4,4.55,4.55Zm2,.4a1.22,1.22,0,0,1-1.48.12l1.6-1.6A1.15,1.15,0,0,1,38.19,86"/></g><text class="cls-18" transform="translate(178.92 92.64)">10%</text><g class="cls-4"><path class="cls-10" d="M183.31,66.19l-.82-.9a.14.14,0,0,0-.12-.06.16.16,0,0,0-.13.06h0l.23.26a.08.08,0,0,1,0,.11h-.05a.06.06,0,0,1-.06,0l-.23-.26-.21.23.24.26a.09.09,0,0,1,0,.12h-.06l-.23-.26-.21.23.44.49a.09.09,0,0,1,0,.12H182l-.44-.49-.21.22,1.06,1.19,1-1a.21.21,0,0,0,0-.28"/><path class="cls-10" d="M179.74,68.06l.44.49a.09.09,0,0,1,0,.12h-.05l-.44-.49-.21.23.23.25a.09.09,0,0,1,0,.12h-.05l-.23-.26-.25.27.24.26a.09.09,0,0,1,0,.12h-.06l-.23-.26h0a.24.24,0,0,0,0,.14.21.21,0,0,0,0,.13l.82.91a.16.16,0,0,0,.23,0h0L181,69l-1.06-1.17Z"/><path class="cls-10" d="M180.84,66.18h-.06l-1.29-.5a.15.15,0,0,0-.16,0,.17.17,0,0,0,0,.17l.44,1.44v.06l2.07,2.3a.72.72,0,0,0,.53.25.69.69,0,0,0,.54-.25.9.9,0,0,0,0-1.17Zm-.08.39,1.79,2-.16.17-1.79-2Zm-1-.21.17-.19.56.22L180,67Zm2.14,2.9-1.79-2,.16-.17,1.79,2Zm.8.17a.43.43,0,0,1-.58,0l.63-.69a.57.57,0,0,1,0,.64"/></g><text class="cls-19" transform="translate(247.2 92.64)">8%</text><g class="cls-4"><path class="cls-9" d="M252.13,65.58a.3.3,0,0,0-.26-.06l-2.57.61a.3.3,0,0,0-.23.29v2.17a.76.76,0,0,0-.3,0,.91.91,0,1,0,.9.92h0V67.72l2-.46v1a1,1,0,0,0-.3-.05.91.91,0,1,0,.91.91v-3.3a.32.32,0,0,0-.11-.24m-2.46,1.52v-.44l2-.46v.44Z"/><path class="cls-16" d="M84.25,17.18H81a1,1,0,0,0,0,2h.18a.43.43,0,0,0,.33-.51.42.42,0,0,0-.44-.34v-.28a.71.71,0,0,1,.71.71.73.73,0,0,1-.49.69v2.33h.62V20.33a.2.2,0,0,1,.2-.2.19.19,0,0,1,.2.18v1.5h.6V20.33a.2.2,0,0,1,.4,0v1.48H84V19.48a.72.72,0,0,1,.2-1.41v.28a.44.44,0,0,0-.44.44h0a.44.44,0,0,0,.34.42h.18a1,1,0,0,0,0-2"/></g><text class="cls-20" transform="translate(325.24 146.58)">2%</text><g class="cls-4"><path class="cls-5" d="M331.76,117.55h-4.51a1.36,1.36,0,0,0-1.43,1.29V119a1.43,1.43,0,0,0,1.42,1.44h.26a.62.62,0,0,0-.16-1.21v-.39a1,1,0,0,1,.31,2v3.27h.88V122a.3.3,0,0,1,.28-.28.29.29,0,0,1,.28.28v2.08h.83V122a.29.29,0,0,1,.34-.23.28.28,0,0,1,.23.23v2.08h.88v-3.27a1,1,0,1,1,.29-2v.4a.61.61,0,0,0-.62.6h0a.62.62,0,0,0,.47.6h.25A1.43,1.43,0,0,0,333.2,119h0a1.37,1.37,0,0,0-1.3-1.44h-.14"/><path class="cls-16" d="M134,120.39l-1.65-7.8-.1-.47h0l-.48-2.28h-7.45l-1.56,7.37h0v.07l-.07.25h0l-.61,2.88a.27.27,0,0,0,.21.32h.06a.26.26,0,0,0,.26-.22l.64-3h2.68l.64,3a.28.28,0,0,0,.27.22h0a.25.25,0,0,0,.21-.3v0l-.61-2.88h3.25l-.6,2.88a.26.26,0,0,0,.19.32h.07a.28.28,0,0,0,.27-.22l.64-3H133l.64,3a.26.26,0,0,0,.26.22H134a.26.26,0,0,0,.22-.26v-.06m-5.64-4.8h-3.12a.28.28,0,0,1-.22-.33.28.28,0,0,1,.22-.22h3.12a.28.28,0,1,1,.11.55.2.2,0,0,1-.11,0m.25-1.18h-3.12a.27.27,0,0,1-.27-.27.28.28,0,0,1,.27-.28h3.12a.3.3,0,0,1,.28.28.28.28,0,0,1-.28.27m.25-1.17h-3.12a.28.28,0,0,1-.27-.28.27.27,0,0,1,.27-.27H129a.27.27,0,0,1,.27.27h0a.28.28,0,0,1-.27.28m.25-1.18H126a.28.28,0,0,1-.22-.33.28.28,0,0,1,.22-.22h3.12a.28.28,0,0,1,.11.55.2.2,0,0,1-.11,0m1.22,4.62,1-6a.12.12,0,0,1,.11-.11.12.12,0,0,1,.11.08h0l1,6h-2.29"/></g><text class="cls-21" transform="translate(247.2 40.03)">16%</text><g class="cls-4"><path class="cls-13" d="M253.6,18.72l-.87-4.13-.06-.25h0l-.26-1.22h-4L247.56,17h0v.13h0l-.32,1.53a.14.14,0,0,0,.1.17h0a.12.12,0,0,0,.14-.11l.34-1.59h1.42l.34,1.59a.13.13,0,0,0,.14.11h0a.13.13,0,0,0,.11-.16h0l-.32-1.53h1.72l-.32,1.53a.14.14,0,0,0,.1.17h0a.12.12,0,0,0,.14-.11l.34-1.59H253l.34,1.59a.12.12,0,0,0,.14.11h0a.14.14,0,0,0,.12-.14h0m-3-2.55H249a.14.14,0,0,1-.14-.14.15.15,0,0,1,.14-.15h1.66a.15.15,0,0,1,.14.15.14.14,0,0,1-.14.14m.13-.62h-1.66a.15.15,0,0,1-.14-.15.14.14,0,0,1,.14-.14h1.66a.14.14,0,0,1,.14.14.15.15,0,0,1-.14.15m.13-.62h-1.65a.15.15,0,0,1-.15-.15.15.15,0,0,1,.15-.14h1.65a.14.14,0,0,1,.14.14.15.15,0,0,1-.14.15m.13-.63H249.4a.15.15,0,0,1-.15-.14.15.15,0,0,1,.15-.15H251a.15.15,0,0,1,.15.15.15.15,0,0,1-.15.14m.65,2.45.56-3.17a.06.06,0,0,1,.11,0l.54,3.18h-1.21"/><path class="cls-16" d="M61.71,28.49l-.57.14a15.15,15.15,0,0,1-3.29.3,14.47,14.47,0,0,1-3.28-.3L54,28.49v2.57a13.48,13.48,0,0,0,2-.24l.57-.14,1.15-.28v2.4h.15a1.39,1.39,0,0,1,1.39,1.39H57.7v2.49a5.4,5.4,0,0,0,2.09-.74,3.58,3.58,0,0,0,1.92-3.14V28.5Zm-2.16,3.68a.47.47,0,1,1,.46-.48v0a.47.47,0,0,1-.46.46"/><path class="cls-16" d="M56.77,32.17v-.59l-.57.14a15.79,15.79,0,0,1-3.29.29,15.7,15.7,0,0,1-3.28-.29l-.58-.14v4.29A3.55,3.55,0,0,0,51,39a5.87,5.87,0,0,0,1.85.71H53A5.85,5.85,0,0,0,54.85,39a3.54,3.54,0,0,0,1.92-3.14Zm-6,2.62a.47.47,0,1,1,.47.47h0a.47.47,0,0,1-.46-.47m2.16,2.94a1.4,1.4,0,0,1-1.39-1.39H54.3a1.39,1.39,0,0,1-1.39,1.39m1.7-2.47a.47.47,0,1,1,.46-.48h0a.47.47,0,0,1-.45.47h0"/></g><text class="cls-22" transform="translate(325.24 92.64)">6%</text><g class="cls-4"><path class="cls-8" d="M332.13,66.58l-.31.08a10.09,10.09,0,0,1-3.58,0l-.31-.08V68a8,8,0,0,0,1.08-.13l.31-.08.63-.15V69H330a.76.76,0,0,1,.76.76H330V71a3.08,3.08,0,0,0,1.13-.41,1.93,1.93,0,0,0,1.05-1.71v-2.3Zm-1.17,2a.26.26,0,1,1,.25-.27h0a.26.26,0,0,1-.25.26"/><path class="cls-8" d="M329.45,68.59v-.33l-.32.08a8.19,8.19,0,0,1-1.78.16,8.37,8.37,0,0,1-1.8-.16l-.31-.08V70.6a1.93,1.93,0,0,0,1.05,1.71,3.59,3.59,0,0,0,1,.39h.09a3.59,3.59,0,0,0,1-.39,2,2,0,0,0,1.05-1.71ZM326.17,70a.25.25,0,1,1,.25.25.26.26,0,0,1-.25-.25m1.18,1.59a.76.76,0,0,1-.76-.75h1.51a.77.77,0,0,1-.75.75m.92-1.34a.26.26,0,1,1,.25-.27v0a.25.25,0,0,1-.25.25"/><path class="cls-16" d="M42.94,114.09V119a.52.52,0,0,1-.35.49,3.08,3.08,0,0,1-1,.16c-1.08,0-2.25-.45-2.25-1.42V111.9a1.78,1.78,0,0,1,.86-1.62c.34-.19,2.11-1.33,3-1.91a.55.55,0,0,1,.53,0,.52.52,0,0,1,.27.46v.75a.51.51,0,0,1-.51.51h0a.51.51,0,0,1-.48-.34c-.81.52-2,1.29-2.29,1.45a.72.72,0,0,0-.33.58.64.64,0,0,0,.1.38c.18.2.8.07,1.47-.33s3.8-2.49,3.83-2.51a.51.51,0,0,1,.53,0,.5.5,0,0,1,.28.45v.06a.54.54,0,0,1-.23.43L44,111.84a2.25,2.25,0,0,0-1,2.25m7.77-2.5v6.72a.5.5,0,0,1-.25.43s-3,2.35-3.63,2.72a2.23,2.23,0,0,1-1.18.3c-1.07,0-2.19-.58-2.19-1.55v-6.43h0a1.72,1.72,0,0,1,.81-1.44c.42-.31,2.93-2,3-2.1a.51.51,0,0,1,.53,0,.53.53,0,0,1,.28.46v.75a.51.51,0,0,1-.51.51h0a.53.53,0,0,1-.48-.31c-.8.55-2,1.36-2.24,1.55a.85.85,0,0,0-.38.62.45.45,0,0,0,.13.35c.26.24,1,.14,1.67-.28s2.75-2,3.57-2.68a.53.53,0,0,1,.74.12.51.51,0,0,1,.1.29m-1,2.31-2.59,2v1l2.59-2Z"/></g><text class="cls-23" transform="translate(407.59 39.65)">12%</text><g class="cls-4"><path class="cls-11" d="M409.18,15.84V18a.23.23,0,0,1-.16.21,1.31,1.31,0,0,1-.44.07c-.47,0-1-.19-1-.62V14.89a.76.76,0,0,1,.37-.71c.15-.08.92-.58,1.31-.83a.22.22,0,0,1,.31.05.23.23,0,0,1,0,.14v.33a.22.22,0,0,1-.22.22h0a.26.26,0,0,1-.22-.14l-1,.63a.29.29,0,0,0-.15.25.49.49,0,0,0,0,.17c.08.08.35,0,.64-.15s1.67-1.09,1.68-1.09a.2.2,0,0,1,.23,0,.24.24,0,0,1,.12.2h0a.23.23,0,0,1-.1.19l-1,.69a1,1,0,0,0-.44,1m3.39-1.1v2.94a.23.23,0,0,1-.1.19s-1.32,1-1.59,1.19a1.06,1.06,0,0,1-.52.13c-.47,0-.95-.25-.95-.68V15.7h0a.73.73,0,0,1,.35-.63l1.33-.92a.24.24,0,0,1,.23,0,.22.22,0,0,1,.12.2v.33a.22.22,0,0,1-.22.22h0a.21.21,0,0,1-.21-.13l-1,.68a.31.31,0,0,0-.17.26.23.23,0,0,0,.06.16c.11.1.42.06.73-.12s1.2-.89,1.56-1.18a.21.21,0,0,1,.24,0,.24.24,0,0,1,.12.2m-.45,1-1.13.88v.45l1.13-.88Z"/><path class="cls-16" d="M75.91,19.38a1.85,1.85,0,0,0-1.31-.87,2,2,0,0,0-2.1,1.65c-.3,1.31,0,1.77.68,1.79a1.18,1.18,0,0,1,.42-.24ZM74,19.29a.47.47,0,0,1,.52-.39.44.44,0,0,1,.38.51h0a.44.44,0,0,1-.49.38h0a.45.45,0,0,1-.39-.5h0m-.93.49a.33.33,0,0,1,.66.1.31.31,0,0,1-.35.28h0a.33.33,0,0,1-.29-.36v0m.09,1.51a.33.33,0,0,1,.11-.65.33.33,0,0,1,.27.37.33.33,0,0,1-.37.28h0"/><path class="cls-16" d="M75.11,21.53v-.06l1.7-2.22a.29.29,0,0,0-.08-.14c-.13-.11-.22-.06-.22-.06l-2,1.91V21Z"/><path class="cls-16" d="M74.42,22.29l.06-.05.53-.59-.58-.52-.53.59-.05.05Zm-.31-.6.26-.3a.09.09,0,0,1,.1,0h0v.1l-.27.3a.06.06,0,0,1-.08,0h0a.06.06,0,0,1,0-.08h0"/><path class="cls-16" d="M74.27,22.45h0v-.06l-.55-.49h0c-.43.11-.86.57-.43,1.1a.06.06,0,0,0,.08,0,.06.06,0,0,0,.06-.06.3.3,0,0,1,.1-.2c.13-.13.5.07.74-.33m-.53.13a.46.46,0,0,0-.3.09h0a.06.06,0,0,1-.06,0l-.06-.05a.33.33,0,0,1,0-.24.31.31,0,0,1,.06-.13.41.41,0,0,0,.38.17.81.81,0,0,1,.31,0,.45.45,0,0,1-.28.06"/></g><text class="cls-24" transform="translate(247.2 146.58)">2%</text><g class="cls-4"><path class="cls-6" d="M251.85,118.25a2.37,2.37,0,0,0-1.72-1.15,2.6,2.6,0,0,0-2.79,2.19c-.39,1.73.06,2.34.9,2.37a1.31,1.31,0,0,1,.55-.31Zm-2.48-.11a.6.6,0,0,1,.68-.51h0a.59.59,0,0,1,.51.66h0a.6.6,0,0,1-1.19-.16m-1.24.65a.45.45,0,0,1,.5-.38.42.42,0,0,1,.38.47v0a.44.44,0,0,1-.49.38h0a.45.45,0,0,1-.38-.5m.13,2a.44.44,0,0,1-.38-.49h0a.44.44,0,0,1,.5-.39.46.46,0,0,1,.38.51.45.45,0,0,1-.5.38"/><path class="cls-6" d="M250.8,121.11l.06-.08,2.25-2.94a.21.21,0,0,0-.11-.19c-.17-.15-.28-.08-.28-.08l-2.62,2.54-.07.06Z"/><path class="cls-6" d="M249.89,122.12,250,122l.71-.78-.77-.69-.7.78-.07.08Zm-.42-.81.35-.4a.09.09,0,0,1,.13,0h0a.09.09,0,0,1,0,.07.06.06,0,0,1,0,.06l-.35.4a.09.09,0,0,1-.13,0h0a0,0,0,0,1,0,0,.09.09,0,0,1,0-.07"/><path class="cls-6" d="M249.68,122.32h0v-.07l-.72-.65h0c-.58.14-1.15.76-.57,1.45a.08.08,0,0,0,.11,0,.11.11,0,0,0,.08-.08.45.45,0,0,1,.12-.27c.18-.16.67.11,1-.43m-.7.18a.53.53,0,0,0-.4.12.06.06,0,0,0-.06.06.14.14,0,0,1-.09,0,.11.11,0,0,1-.07-.06.58.58,0,0,1,0-.32.76.76,0,0,1,.09-.18.57.57,0,0,0,.51.23,1,1,0,0,1,.41,0,.84.84,0,0,1-.38.08"/><path class="cls-16" d="M85.68,130.52c-.33,0-.6.54-.6,1.21s.27,1.21.6,1.21.61-.54.61-1.21-.27-1.21-.61-1.21"/><path class="cls-16" d="M83.67,128.85c1.21,0,1.71.1,1.71,1H86c0-1.61-1.34-1.61-2.32-1.61-1.22,0-1.72-.09-1.72-1h-.6c0,1.6,1.34,1.6,2.32,1.6"/><path class="cls-16" d="M86.8,129.86a1.77,1.77,0,0,1,.09.56V133a1.47,1.47,0,0,1-1,1.48h0v2.11a.22.22,0,0,1-.22.22h0a.22.22,0,0,1-.22-.22h0v-2.11h0a1.46,1.46,0,0,1-1-1.48v-2.62a1.77,1.77,0,0,1,.09-.56,3.9,3.9,0,0,0-2.91,3.75v3.49a3.92,3.92,0,0,0,3.89,3.9h.28a3.91,3.91,0,0,0,3.89-3.9v-3.49a3.88,3.88,0,0,0-2.91-3.75"/></g><text class="cls-25" transform="translate(325.24 39.65)">16%</text><g class="cls-4"><path class="cls-12" d="M327.12,14.07c-.15,0-.27.23-.27.52s.12.52.27.52.26-.23.26-.52-.12-.52-.26-.52"/><path class="cls-12" d="M326.24,13.34c.53,0,.75,0,.75.44h.26c0-.7-.58-.7-1-.7s-.74,0-.74-.43h-.26c0,.69.58.69,1,.69"/><path class="cls-12" d="M327.6,13.78a1,1,0,0,1,0,.24v1.14a.63.63,0,0,1-.43.64h0v.91a.09.09,0,0,1-.08.1h0a.11.11,0,0,1-.1-.1V15.8h0a.65.65,0,0,1-.44-.64V14a1,1,0,0,1,0-.24,1.68,1.68,0,0,0-1.26,1.62v1.51A1.69,1.69,0,0,0,327,18.58h.12a1.69,1.69,0,0,0,1.68-1.69V15.4a1.68,1.68,0,0,0-1.26-1.62"/><path class="cls-16" d="M66.65,20.77h1.77a.11.11,0,0,0,.11-.11h0v-.33h-.47v-.27a.21.21,0,0,0-.21-.21h-.63a.21.21,0,0,0-.21.21v.27h-.47v.33a.11.11,0,0,0,.11.11h0"/><path class="cls-16" d="M68.74,20.33v.33a.32.32,0,0,1-.32.32H66.65a.32.32,0,0,1-.32-.32v-.33h-.9V25a.42.42,0,0,0,.42.42h3.37a.42.42,0,0,0,.42-.42V20.33Zm.37,4.52H66v-3.4h3.15Z"/><rect class="cls-16" x="67.51" y="23.03" width="0.22" height="0.62"/><rect class="cls-16" x="67.13" y="23.03" width="0.22" height="0.62"/><rect class="cls-16" x="67.88" y="23.03" width="0.22" height="0.62"/><polygon class="cls-16" points="67.06 22.88 68.18 22.88 67.62 22.5 67.06 22.88"/><path class="cls-16" d="M68.93,21.61H66.18v3h2.75Zm-.51,2a.08.08,0,0,1,.08.07.09.09,0,0,1-.08.08h-1.6a.09.09,0,0,1-.08-.08h0a.07.07,0,0,1,.07-.07H67V23h-.16a.09.09,0,0,1-.08-.05.07.07,0,0,1,0-.09l.81-.54a.06.06,0,0,1,.08,0l.8.54a.14.14,0,0,1,0,.09.1.1,0,0,1-.08.05h-.16v.62Z"/></g><text class="cls-26" transform="translate(178.92 146.09)">2%</text><g class="cls-4"><path class="cls-7" d="M180,118.41h1.62a.09.09,0,0,0,.1-.1h0V118h-.43v-.25a.2.2,0,0,0-.19-.19h-.58a.21.21,0,0,0-.19.19V118h-.42v.3a.09.09,0,0,0,.08.1h0"/><path class="cls-7" d="M181.94,118v.3a.29.29,0,0,1-.29.29H180a.29.29,0,0,1-.29-.29V118h-.82v4.22a.38.38,0,0,0,.37.39h3.09a.38.38,0,0,0,.38-.38h0V118Zm.34,4.13H179.4V119h2.88Z"/><rect class="cls-7" x="180.81" y="120.47" width="0.21" height="0.56"/><rect class="cls-7" x="180.47" y="120.47" width="0.2" height="0.56"/><rect class="cls-7" x="181.16" y="120.47" width="0.21" height="0.56"/><polygon class="cls-7" points="180.41 120.34 181.43 120.34 180.92 119.99 180.41 120.34"/><path class="cls-7" d="M182.11,119.18h-2.5v2.74h2.5Zm-.46,1.86a.07.07,0,1,1,0,.14h-1.47a.07.07,0,0,1,0-.14h.16v-.57h-.16a.06.06,0,0,1-.06,0,.06.06,0,0,1,0-.08l.73-.5H181l.73.5a.06.06,0,0,1,0,.12h-.15V121Z"/><path class="cls-16" d="M44.34,48a.75.75,0,0,0-.63-.14l-6.25,1.47a.72.72,0,0,0-.55.72v5.28a2.4,2.4,0,0,0-.75-.12,2.21,2.21,0,1,0,2.2,2.22V53.21l4.78-1.13V54.6a2,2,0,0,0-.73-.13,2.21,2.21,0,1,0,2.2,2.22h0v-8.1a.76.76,0,0,0-.27-.58m-6,3.7V50.61l4.78-1.12v1.06Z"/></g></g><ellipse class="cls-2" cx="88.59" cy="82.16" rx="27.9" ry="22.75"/><g class="cls-27"><path class="cls-11" d="M414.71,17.93V13.52h.58v3.89h2.18v.52Z"/><path class="cls-11" d="M418.26,17.93V13.52h.58v4.41Z"/><path class="cls-11" d="M419.85,17.93V13.52h1.65a2,2,0,0,1,.81.13,1,1,0,0,1,.48.42,1,1,0,0,1,.17.58,1,1,0,0,1-.15.53,1.07,1.07,0,0,1-.46.4,1.21,1.21,0,0,1,.61.4,1,1,0,0,1,.22.67,1.41,1.41,0,0,1-.13.58,1.15,1.15,0,0,1-.33.41,1.42,1.42,0,0,1-.48.22,2.88,2.88,0,0,1-.71.07Zm.58-2.56h1a1.88,1.88,0,0,0,.55,0,.58.58,0,0,0,.34-.22.66.66,0,0,0,.11-.38.81.81,0,0,0-.1-.39.59.59,0,0,0-.31-.23,2.55,2.55,0,0,0-.67-.06h-.88Zm0,2h1.1l.4,0a1.27,1.27,0,0,0,.33-.12.7.7,0,0,0,.23-.25.84.84,0,0,0,.08-.37.77.77,0,0,0-.12-.43.69.69,0,0,0-.35-.25,2.15,2.15,0,0,0-.65-.08h-1Z"/><path class="cls-11" d="M424,17.93V13.52h2a2.53,2.53,0,0,1,.89.12,1,1,0,0,1,.49.42,1.27,1.27,0,0,1,.19.66,1.1,1.1,0,0,1-.31.79,1.45,1.45,0,0,1-.94.41,1.65,1.65,0,0,1,.35.22,2.9,2.9,0,0,1,.49.59l.77,1.2h-.74l-.58-.92c-.17-.26-.31-.46-.42-.61a1.32,1.32,0,0,0-.3-.29.76.76,0,0,0-.26-.12l-.33,0h-.68v2Zm.58-2.46h1.26a1.73,1.73,0,0,0,.62-.09.67.67,0,0,0,.35-.26.69.69,0,0,0,.11-.4.64.64,0,0,0-.22-.51A1,1,0,0,0,426,14h-1.4Z"/><path class="cls-11" d="M428.25,15.78a2.43,2.43,0,0,1,.59-1.72,2,2,0,0,1,1.52-.62,2.12,2.12,0,0,1,1.1.29,1.92,1.92,0,0,1,.75.82,2.66,2.66,0,0,1,.26,1.18,2.59,2.59,0,0,1-.27,1.2,1.86,1.86,0,0,1-.77.8,2.22,2.22,0,0,1-1.07.28,2.08,2.08,0,0,1-1.11-.31,1.92,1.92,0,0,1-.75-.82A2.57,2.57,0,0,1,428.25,15.78Zm.6,0a1.81,1.81,0,0,0,.43,1.26,1.45,1.45,0,0,0,1.08.46,1.39,1.39,0,0,0,1.08-.47,1.83,1.83,0,0,0,.43-1.31,2.28,2.28,0,0,0-.18-.94,1.37,1.37,0,0,0-.54-.62,1.4,1.4,0,0,0-.78-.23,1.51,1.51,0,0,0-1.07.43A1.89,1.89,0,0,0,428.85,15.79Z"/><path class="cls-11" d="M433,16.51l.55,0a1.32,1.32,0,0,0,.18.54,1.07,1.07,0,0,0,.45.34,1.62,1.62,0,0,0,.68.13,1.5,1.5,0,0,0,.58-.1.76.76,0,0,0,.39-.27.64.64,0,0,0,.12-.38.56.56,0,0,0-.12-.36.9.9,0,0,0-.4-.26,7.32,7.32,0,0,0-.78-.22,3.38,3.38,0,0,1-.85-.27,1.2,1.2,0,0,1-.47-.41,1,1,0,0,1-.16-.55,1.08,1.08,0,0,1,.19-.62,1.15,1.15,0,0,1,.55-.44,2.16,2.16,0,0,1,.81-.15,2.33,2.33,0,0,1,.87.15,1.21,1.21,0,0,1,.57.47,1.26,1.26,0,0,1,.22.69l-.56,0a.94.94,0,0,0-.3-.63,1.58,1.58,0,0,0-1.54,0,.58.58,0,0,0-.25.47.51.51,0,0,0,.17.39,2.49,2.49,0,0,0,.88.32,5.24,5.24,0,0,1,1,.28,1.33,1.33,0,0,1,.57.45,1.1,1.1,0,0,1,.18.62,1.17,1.17,0,0,1-.2.67,1.26,1.26,0,0,1-.58.48,1.93,1.93,0,0,1-.85.18,2.45,2.45,0,0,1-1-.18,1.49,1.49,0,0,1-.64-.52A1.56,1.56,0,0,1,433,16.51Z"/><path class="cls-11" d="M440.17,17.93V16.06l-1.7-2.54h.71l.87,1.33q.24.38.45.75.19-.35.48-.78l.86-1.3h.68l-1.76,2.54v1.87Z"/><path class="cls-11" d="M414.74,25.32V20.91h1.66a5.18,5.18,0,0,1,.67,0,1.33,1.33,0,0,1,.54.21,1,1,0,0,1,.36.43,1.32,1.32,0,0,1,.13.6,1.36,1.36,0,0,1-.36.95,1.71,1.71,0,0,1-1.29.39h-1.13v1.79Zm.58-2.31h1.14a1.2,1.2,0,0,0,.8-.21.75.75,0,0,0,.24-.59.83.83,0,0,0-.14-.48.65.65,0,0,0-.37-.26,2.94,2.94,0,0,0-.54,0h-1.13Z"/><path class="cls-11" d="M421.74,20.91h.58v2.55a3.06,3.06,0,0,1-.15,1.06,1.26,1.26,0,0,1-.54.63,2,2,0,0,1-1,.25,2.06,2.06,0,0,1-1-.22,1.17,1.17,0,0,1-.56-.62,2.91,2.91,0,0,1-.17-1.1V20.91h.59v2.55a2.51,2.51,0,0,0,.1.84.84.84,0,0,0,.37.42,1.26,1.26,0,0,0,.64.15,1.21,1.21,0,0,0,.91-.29,1.64,1.64,0,0,0,.28-1.12Z"/><path class="cls-11" d="M423.27,25.32V20.91h1.65a2,2,0,0,1,.81.14.92.92,0,0,1,.48.41,1,1,0,0,1,.17.58,1,1,0,0,1-.15.53,1.16,1.16,0,0,1-.46.41,1.1,1.1,0,0,1,.61.4,1,1,0,0,1,.22.66,1.41,1.41,0,0,1-.13.58,1.15,1.15,0,0,1-.33.41,1.25,1.25,0,0,1-.48.22,2.88,2.88,0,0,1-.71.07Zm.58-2.56h1a1.88,1.88,0,0,0,.55-.05.58.58,0,0,0,.34-.22.66.66,0,0,0,.11-.38.81.81,0,0,0-.1-.39.65.65,0,0,0-.31-.23,2.55,2.55,0,0,0-.67-.06h-.88Zm0,2H425l.4,0a.81.81,0,0,0,.33-.12.7.7,0,0,0,.23-.25A.84.84,0,0,0,426,24a.8.8,0,0,0-.12-.43.69.69,0,0,0-.35-.25,2.21,2.21,0,0,0-.65-.07h-1Z"/><path class="cls-11" d="M427.38,25.32V20.91H428V24.8h2.17v.52Z"/><path class="cls-11" d="M430.93,25.32V20.91h.58v4.41Z"/><path class="cls-11" d="M435.68,23.78l.59.14a1.94,1.94,0,0,1-.66,1.1,1.85,1.85,0,0,1-1.17.38,2.14,2.14,0,0,1-1.16-.29,2,2,0,0,1-.68-.84,3.11,3.11,0,0,1-.23-1.19,2.65,2.65,0,0,1,.26-1.2,1.88,1.88,0,0,1,.75-.78,2.29,2.29,0,0,1,1.07-.26,1.83,1.83,0,0,1,1.11.33,1.73,1.73,0,0,1,.63.95l-.57.14a1.3,1.3,0,0,0-.45-.7,1.15,1.15,0,0,0-.73-.22,1.44,1.44,0,0,0-.85.24,1.26,1.26,0,0,0-.48.65,2.75,2.75,0,0,0-.14.85,2.64,2.64,0,0,0,.17,1,1.24,1.24,0,0,0,.51.63,1.41,1.41,0,0,0,.74.21,1.23,1.23,0,0,0,.83-.29A1.38,1.38,0,0,0,435.68,23.78Z"/><path class="cls-11" d="M436.5,25.32l1.7-4.41h.63l1.8,4.41H440L439.45,24h-1.84l-.49,1.33Zm1.28-1.81h1.49l-.46-1.22c-.14-.37-.24-.68-.31-.91a6.62,6.62,0,0,1-.24.84Z"/><path class="cls-11" d="M444.24,23.78l.59.14a2.06,2.06,0,0,1-.66,1.1,1.85,1.85,0,0,1-1.17.38,2.12,2.12,0,0,1-1.16-.29,1.9,1.9,0,0,1-.68-.84,2.94,2.94,0,0,1-.23-1.19,2.53,2.53,0,0,1,.26-1.2,1.88,1.88,0,0,1,.75-.78,2.26,2.26,0,0,1,1.07-.26,1.83,1.83,0,0,1,1.11.33,1.78,1.78,0,0,1,.63.95l-.57.14a1.42,1.42,0,0,0-.45-.7,1.15,1.15,0,0,0-.73-.22,1.42,1.42,0,0,0-.85.24,1.26,1.26,0,0,0-.48.65,2.75,2.75,0,0,0-.14.85,2.65,2.65,0,0,0,.16,1,1.24,1.24,0,0,0,.51.63,1.42,1.42,0,0,0,.75.21,1.25,1.25,0,0,0,.83-.29A1.38,1.38,0,0,0,444.24,23.78Z"/><path class="cls-11" d="M445.64,25.32V20.91h.59v4.41Z"/><path class="cls-11" d="M447.08,23.17a2.34,2.34,0,0,1,.59-1.71,2,2,0,0,1,1.52-.63,2.06,2.06,0,0,1,1.1.3,1.84,1.84,0,0,1,.75.81,2.65,2.65,0,0,1,.25,1.18,2.47,2.47,0,0,1-.27,1.2,1.79,1.79,0,0,1-.76.8,2.21,2.21,0,0,1-2.19,0,2,2,0,0,1-.74-.83A2.43,2.43,0,0,1,447.08,23.17Zm.6,0a1.77,1.77,0,0,0,.43,1.26,1.41,1.41,0,0,0,1.07.46,1.43,1.43,0,0,0,1.09-.47,1.86,1.86,0,0,0,.42-1.31,2.28,2.28,0,0,0-.18-.94,1.35,1.35,0,0,0-.53-.62,1.43,1.43,0,0,0-.79-.22,1.48,1.48,0,0,0-1.06.42A1.9,1.9,0,0,0,447.68,23.18Z"/><path class="cls-11" d="M452,25.32V20.91h.6L455,24.37V20.91h.56v4.41h-.6l-2.32-3.46v3.46Z"/><path class="cls-11" d="M456.51,25.32V20.91h3.19v.52h-2.61v1.35h2.44v.52h-2.44v1.5h2.71v.52Z"/><path class="cls-11" d="M460.41,23.9l.55,0a1.08,1.08,0,0,0,.18.54.92.92,0,0,0,.44.34,1.65,1.65,0,0,0,.68.13,1.55,1.55,0,0,0,.59-.1.73.73,0,0,0,.38-.27.64.64,0,0,0,.12-.38.6.6,0,0,0-.12-.36.92.92,0,0,0-.39-.26,7.9,7.9,0,0,0-.79-.21,3.93,3.93,0,0,1-.85-.28,1.2,1.2,0,0,1-.47-.41,1,1,0,0,1-.16-.55,1.16,1.16,0,0,1,.19-.62,1.13,1.13,0,0,1,.56-.44,2.09,2.09,0,0,1,.81-.15A2.31,2.31,0,0,1,463,21a1.25,1.25,0,0,1,.79,1.16l-.56.05a1,1,0,0,0-.3-.64,1.2,1.2,0,0,0-.77-.21,1.22,1.22,0,0,0-.77.2.56.56,0,0,0-.24.46.48.48,0,0,0,.17.39,2.16,2.16,0,0,0,.88.32,6,6,0,0,1,1,.28,1.33,1.33,0,0,1,.57.45,1.12,1.12,0,0,1,.19.63,1.17,1.17,0,0,1-.21.66,1.23,1.23,0,0,1-.57.48,2,2,0,0,1-.85.18,2.5,2.5,0,0,1-1-.18,1.35,1.35,0,0,1-.63-.52A1.4,1.4,0,0,1,460.41,23.9Z"/></g><g class="cls-27"><path class="cls-14" d="M188.09,18.14l1.69-4.4h.63l1.81,4.4h-.67L191,16.81h-1.85l-.48,1.33Zm1.27-1.81h1.5l-.46-1.22c-.14-.37-.25-.67-.32-.91a5.25,5.25,0,0,1-.23.84Z"/><path class="cls-14" d="M195.46,13.74H196v2.54a3,3,0,0,1-.15,1.06,1.26,1.26,0,0,1-.54.63,1.85,1.85,0,0,1-1,.25,2.13,2.13,0,0,1-1-.21,1.27,1.27,0,0,1-.57-.62,3,3,0,0,1-.16-1.11V13.74h.58v2.54a2.29,2.29,0,0,0,.11.85.82.82,0,0,0,.36.42,1.41,1.41,0,0,0,.64.14,1.21,1.21,0,0,0,.92-.29,1.69,1.69,0,0,0,.27-1.12Z"/><path class="cls-14" d="M196.9,18.14v-4.4h1.52a3.83,3.83,0,0,1,.78.06,1.57,1.57,0,0,1,.65.31,1.78,1.78,0,0,1,.52.76,2.82,2.82,0,0,1,.17,1.05,3.44,3.44,0,0,1-.11.89,2.38,2.38,0,0,1-.3.64,1.72,1.72,0,0,1-.41.4,1.54,1.54,0,0,1-.52.22,3,3,0,0,1-.71.07Zm.58-.52h.94a2.17,2.17,0,0,0,.69-.08.94.94,0,0,0,.39-.23,1.35,1.35,0,0,0,.33-.55,3,3,0,0,0,.11-.85,2,2,0,0,0-.23-1.07,1.12,1.12,0,0,0-.55-.49,2,2,0,0,0-.75-.09h-.93Z"/><path class="cls-14" d="M201.33,18.14v-4.4h.58v4.4Z"/><path class="cls-14" d="M202.65,16a2.35,2.35,0,0,1,.59-1.72,2,2,0,0,1,1.52-.62,2.06,2.06,0,0,1,1.1.29,1.9,1.9,0,0,1,.75.81,2.88,2.88,0,0,1,0,2.39,1.84,1.84,0,0,1-.76.8,2.25,2.25,0,0,1-1.08.27,2.1,2.1,0,0,1-1.11-.3,2,2,0,0,1-.74-.82A2.49,2.49,0,0,1,202.65,16Zm.6,0a1.73,1.73,0,0,0,.43,1.25,1.38,1.38,0,0,0,1.07.46,1.42,1.42,0,0,0,1.09-.46,1.9,1.9,0,0,0,.42-1.32,2.28,2.28,0,0,0-.18-.94,1.4,1.4,0,0,0-1.32-.84,1.52,1.52,0,0,0-1.07.42A2,2,0,0,0,203.25,16Z"/><path class="cls-14" d="M208.76,18.14l-1.71-4.4h.63l1.15,3.2c.09.26.17.5.23.72q.1-.36.24-.72l1.19-3.2h.59l-1.72,4.4Z"/><path class="cls-14" d="M211.59,18.14v-4.4h.58v4.4Z"/><path class="cls-14" d="M212.89,16.73l.55-.05a1.08,1.08,0,0,0,.18.54,1,1,0,0,0,.44.35,1.83,1.83,0,0,0,.68.13,1.78,1.78,0,0,0,.59-.1.86.86,0,0,0,.38-.28.63.63,0,0,0,.12-.37.61.61,0,0,0-.12-.37.92.92,0,0,0-.39-.26l-.79-.21a3.93,3.93,0,0,1-.85-.28,1.12,1.12,0,0,1-.47-.41,1,1,0,0,1-.16-.55,1.16,1.16,0,0,1,.19-.62,1.19,1.19,0,0,1,.56-.44,2.09,2.09,0,0,1,.81-.15,2.13,2.13,0,0,1,.86.16,1.27,1.27,0,0,1,.58.46,1.4,1.4,0,0,1,.21.7l-.56,0a.9.9,0,0,0-.3-.63,1.14,1.14,0,0,0-.77-.22,1.22,1.22,0,0,0-.77.2.58.58,0,0,0-.24.47.5.5,0,0,0,.17.39,2.38,2.38,0,0,0,.88.31,6,6,0,0,1,1,.28,1.33,1.33,0,0,1,.57.45,1.12,1.12,0,0,1,.19.63,1.15,1.15,0,0,1-.21.66,1.31,1.31,0,0,1-.57.49,2.15,2.15,0,0,1-.85.17,2.5,2.5,0,0,1-1-.18,1.35,1.35,0,0,1-.63-.52A1.36,1.36,0,0,1,212.89,16.73Z"/><path class="cls-14" d="M220,13.74h.58v2.54a3,3,0,0,1-.15,1.06,1.26,1.26,0,0,1-.54.63,1.87,1.87,0,0,1-1,.25,2.13,2.13,0,0,1-1-.21,1.27,1.27,0,0,1-.57-.62,3,3,0,0,1-.17-1.11V13.74h.59v2.54a2.57,2.57,0,0,0,.1.85.89.89,0,0,0,.37.42,1.41,1.41,0,0,0,.64.14,1.21,1.21,0,0,0,.92-.29,1.69,1.69,0,0,0,.27-1.12Z"/><path class="cls-14" d="M220.92,18.14l1.7-4.4h.63l1.8,4.4h-.66l-.52-1.33H222l-.49,1.33Zm1.28-1.81h1.49l-.46-1.22c-.14-.37-.24-.67-.31-.91a6.62,6.62,0,0,1-.24.84Z"/><path class="cls-14" d="M225.38,18.14v-4.4H226v3.88h2.17v.52Z"/></g><g class="cls-27"><path class="cls-10" d="M185.94,69.55V65.14h1.51a3.88,3.88,0,0,1,.79.06,1.59,1.59,0,0,1,.65.32,1.91,1.91,0,0,1,.52.75,3.12,3.12,0,0,1,.17,1,3,3,0,0,1-.12.89,2,2,0,0,1-.3.64,1.38,1.38,0,0,1-.4.4,1.51,1.51,0,0,1-.53.22,2.93,2.93,0,0,1-.7.08Zm.58-.52h.94a2.38,2.38,0,0,0,.68-.08,1,1,0,0,0,.4-.23,1.27,1.27,0,0,0,.32-.56,2.64,2.64,0,0,0,.12-.85,2.06,2.06,0,0,0-.23-1.06,1.14,1.14,0,0,0-.55-.5,2.3,2.3,0,0,0-.75-.09h-.93Z"/><path class="cls-10" d="M190.48,69.55V65.14h.59v4.41Z"/><path class="cls-10" d="M191.9,68.13l.55,0a1.08,1.08,0,0,0,.18.54,1,1,0,0,0,.44.34,1.65,1.65,0,0,0,.68.13,1.55,1.55,0,0,0,.59-.1.73.73,0,0,0,.38-.27.64.64,0,0,0,.12-.38.56.56,0,0,0-.12-.36.92.92,0,0,0-.39-.26,7,7,0,0,0-.79-.22,3.53,3.53,0,0,1-.85-.27,1.2,1.2,0,0,1-.47-.41,1,1,0,0,1-.15-.55,1.15,1.15,0,0,1,.18-.62,1.18,1.18,0,0,1,.56-.44,2.09,2.09,0,0,1,.81-.15,2.31,2.31,0,0,1,.86.15,1.29,1.29,0,0,1,.58.47,1.34,1.34,0,0,1,.21.69l-.55,0a1,1,0,0,0-.31-.63,1.2,1.2,0,0,0-.77-.21,1.23,1.23,0,0,0-.77.19.59.59,0,0,0-.24.47.51.51,0,0,0,.17.39,2.33,2.33,0,0,0,.88.32,5.07,5.07,0,0,1,1,.28,1.33,1.33,0,0,1,.57.45,1,1,0,0,1,.19.62,1.25,1.25,0,0,1-.2.67,1.31,1.31,0,0,1-.58.48,2,2,0,0,1-.85.18,2.5,2.5,0,0,1-1-.18,1.41,1.41,0,0,1-.63-.52A1.48,1.48,0,0,1,191.9,68.13Z"/><path class="cls-10" d="M196.22,69.55V65.14h3.18v.52h-2.6V67h2.44v.52H196.8V69h2.71v.52Z"/><path class="cls-10" d="M200.31,69.55V65.14h.6l2.31,3.46V65.14h.56v4.41h-.6l-2.31-3.46v3.46Zm.82-4.68a.74.74,0,0,1,.17-.5.6.6,0,0,1,.44-.19,1.21,1.21,0,0,1,.51.17.68.68,0,0,0,.28.09.18.18,0,0,0,.15-.06.36.36,0,0,0,.07-.21h.39a.72.72,0,0,1-.17.52.57.57,0,0,1-.42.17,1.22,1.22,0,0,1-.5-.17.76.76,0,0,0-.29-.11.23.23,0,0,0-.17.08.31.31,0,0,0-.06.21Z"/><path class="cls-10" d="M204.58,67.4a2.43,2.43,0,0,1,.59-1.72,2,2,0,0,1,1.52-.62,2.19,2.19,0,0,1,1.11.29,2,2,0,0,1,.74.82,2.66,2.66,0,0,1,.26,1.18,2.59,2.59,0,0,1-.27,1.2,1.86,1.86,0,0,1-.77.8,2.22,2.22,0,0,1-1.07.28,2.11,2.11,0,0,1-1.11-.31,1.84,1.84,0,0,1-.74-.82A2.44,2.44,0,0,1,204.58,67.4Zm.61,0a1.81,1.81,0,0,0,.42,1.26,1.45,1.45,0,0,0,1.08.46,1.39,1.39,0,0,0,1.08-.47,1.83,1.83,0,0,0,.43-1.31,2.28,2.28,0,0,0-.18-.94,1.31,1.31,0,0,0-.54-.62,1.4,1.4,0,0,0-.78-.23,1.51,1.51,0,0,0-1.07.43A1.89,1.89,0,0,0,205.19,67.41Z"/></g><g class="cls-27"><path class="cls-9" d="M254.2,69.77V65.36h.88l1,3.12q.15.43.21.66l.23-.71,1.06-3.07h.79v4.41h-.57V66.08l-1.28,3.69H256L254.76,66v3.75Z"/><path class="cls-9" d="M262.24,65.36h.58v2.55a3,3,0,0,1-.15,1,1.25,1.25,0,0,1-.54.64,1.94,1.94,0,0,1-1,.25,2.13,2.13,0,0,1-1-.22,1.23,1.23,0,0,1-.57-.62,3,3,0,0,1-.16-1.1V65.36h.58V67.9a2.26,2.26,0,0,0,.11.85.82.82,0,0,0,.36.42,1.29,1.29,0,0,0,.64.15A1.25,1.25,0,0,0,262,69a1.72,1.72,0,0,0,.27-1.13Zm-1.52-.27.4-.84h.71l-.66.84Z"/><path class="cls-9" d="M263.6,68.35l.55,0a1.08,1.08,0,0,0,.18.54,1,1,0,0,0,.44.34,1.65,1.65,0,0,0,.68.13,1.55,1.55,0,0,0,.59-.1.73.73,0,0,0,.38-.27.64.64,0,0,0,.12-.38.56.56,0,0,0-.12-.36A.92.92,0,0,0,266,68a5.78,5.78,0,0,0-.79-.21,3.93,3.93,0,0,1-.85-.28,1.2,1.2,0,0,1-.47-.41,1,1,0,0,1-.15-.55,1.08,1.08,0,0,1,.19-.62,1.11,1.11,0,0,1,.55-.44,2.09,2.09,0,0,1,.81-.15,2.31,2.31,0,0,1,.86.15,1.29,1.29,0,0,1,.58.47,1.34,1.34,0,0,1,.21.69l-.55.05a1,1,0,0,0-.31-.64,1.2,1.2,0,0,0-.77-.21,1.23,1.23,0,0,0-.77.19.59.59,0,0,0-.24.47.48.48,0,0,0,.17.39,2.33,2.33,0,0,0,.88.32,5.07,5.07,0,0,1,1,.28,1.33,1.33,0,0,1,.57.45,1,1,0,0,1,.19.63,1.24,1.24,0,0,1-.2.66,1.31,1.31,0,0,1-.58.48,2,2,0,0,1-.85.18,2.5,2.5,0,0,1-1-.18,1.41,1.41,0,0,1-.63-.52A1.48,1.48,0,0,1,263.6,68.35Z"/><path class="cls-9" d="M268,69.77V65.36h.59v4.41Z"/><path class="cls-9" d="M272.76,68.22l.58.15a1.94,1.94,0,0,1-.66,1.1,1.8,1.8,0,0,1-1.16.38,2.12,2.12,0,0,1-1.16-.29,1.81,1.81,0,0,1-.68-.85,2.89,2.89,0,0,1-.23-1.18,2.53,2.53,0,0,1,.26-1.2,1.82,1.82,0,0,1,.75-.78,2.15,2.15,0,0,1,1.07-.26,1.83,1.83,0,0,1,1.11.33,1.78,1.78,0,0,1,.63.95l-.57.13a1.47,1.47,0,0,0-.45-.7,1.22,1.22,0,0,0-.73-.22,1.43,1.43,0,0,0-.85.25,1.26,1.26,0,0,0-.48.65,2.49,2.49,0,0,0-.14.85,2.69,2.69,0,0,0,.16,1,1.24,1.24,0,0,0,.51.63,1.42,1.42,0,0,0,.75.21,1.25,1.25,0,0,0,.83-.29A1.41,1.41,0,0,0,272.76,68.22Z"/><path class="cls-9" d="M273.58,69.77l1.69-4.41h.63l1.81,4.41H277l-.51-1.34h-1.85l-.48,1.34ZM274.85,68h1.5l-.46-1.22c-.14-.37-.25-.68-.32-.92a5.09,5.09,0,0,1-.23.85Z"/></g><g class="cls-27"><path class="cls-5" d="M335,122v-4.41h1.66a3.84,3.84,0,0,1,.67,0,1.33,1.33,0,0,1,.54.21,1.06,1.06,0,0,1,.36.42,1.39,1.39,0,0,1,.13.61,1.36,1.36,0,0,1-.36,1,1.71,1.71,0,0,1-1.29.39h-1.13V122Zm.58-2.31h1.14a1.2,1.2,0,0,0,.8-.21.75.75,0,0,0,.24-.6.82.82,0,0,0-.14-.47.65.65,0,0,0-.37-.26,2.24,2.24,0,0,0-.54,0h-1.13Z"/><path class="cls-5" d="M337.76,122l1.7-4.41h.62l1.81,4.41h-.67l-.51-1.34h-1.84l-.49,1.34Zm1.27-1.81h1.5l-.46-1.22a9,9,0,0,1-.31-.92,6.32,6.32,0,0,1-.24.85Z"/><path class="cls-5" d="M342.59,122v-3.89h-1.46v-.52h3.5v.52h-1.46V122Z"/><path class="cls-5" d="M344.81,122v-4.41h1.95a2.63,2.63,0,0,1,.9.12,1,1,0,0,1,.49.42,1.26,1.26,0,0,1,.18.66,1.14,1.14,0,0,1-.3.8,1.52,1.52,0,0,1-.94.4,2,2,0,0,1,.35.22,3.74,3.74,0,0,1,.49.59l.76,1.2H348l-.58-.92-.43-.61a1.57,1.57,0,0,0-.29-.29,1.07,1.07,0,0,0-.27-.12l-.32,0h-.68v2Zm.58-2.46h1.25a1.75,1.75,0,0,0,.63-.09.64.64,0,0,0,.34-.26.7.7,0,0,0,.12-.4.66.66,0,0,0-.23-.51,1,1,0,0,0-.71-.2h-1.4Z"/><path class="cls-5" d="M348.91,122v-4.41h.59V122Z"/><path class="cls-5" d="M350.08,122v-4.41H351l1,3.12q.15.44.21.66l.23-.71,1.06-3.07h.79V122h-.57v-3.69L352.44,122h-.52l-1.28-3.75V122Z"/><path class="cls-5" d="M354.62,119.89a2.38,2.38,0,0,1,.59-1.72,2,2,0,0,1,1.52-.62,2.15,2.15,0,0,1,1.1.29,1.92,1.92,0,0,1,.75.82,2.65,2.65,0,0,1,.25,1.18,2.59,2.59,0,0,1-.27,1.2,1.84,1.84,0,0,1-.76.8,2.22,2.22,0,0,1-1.07.28,2.12,2.12,0,0,1-1.12-.31,2,2,0,0,1-.74-.82A2.43,2.43,0,0,1,354.62,119.89Zm.6,0a1.77,1.77,0,0,0,.43,1.26,1.41,1.41,0,0,0,1.07.46,1.43,1.43,0,0,0,1.09-.47,1.87,1.87,0,0,0,.42-1.31,2.28,2.28,0,0,0-.18-.94,1.35,1.35,0,0,0-.53-.62,1.43,1.43,0,0,0-.79-.23,1.49,1.49,0,0,0-1.06.43A1.89,1.89,0,0,0,355.22,119.9Z"/><path class="cls-5" d="M359.15,122v-4.41h.6l2.31,3.46v-3.46h.56V122H362l-2.31-3.46V122Z"/><path class="cls-5" d="M363.27,122v-4.41h.59V122Z"/><path class="cls-5" d="M364.28,119.89a2.38,2.38,0,0,1,.59-1.72,2,2,0,0,1,1.52-.62,2.18,2.18,0,0,1,1.1.29,2.05,2.05,0,0,1,.75.82,2.65,2.65,0,0,1,.25,1.18,2.59,2.59,0,0,1-.27,1.2,1.84,1.84,0,0,1-.76.8,2.26,2.26,0,0,1-1.08.28,2.11,2.11,0,0,1-1.11-.31,1.9,1.9,0,0,1-.74-.82A2.43,2.43,0,0,1,364.28,119.89Zm.6,0a1.77,1.77,0,0,0,.43,1.26,1.41,1.41,0,0,0,1.07.46,1.43,1.43,0,0,0,1.09-.47,1.87,1.87,0,0,0,.42-1.31,2.28,2.28,0,0,0-.18-.94,1.35,1.35,0,0,0-.53-.62,1.46,1.46,0,0,0-.79-.23,1.53,1.53,0,0,0-1.07.43A1.93,1.93,0,0,0,364.88,119.9Z"/><path class="cls-5" d="M335,129.43V125h.88l1,3.12c.1.3.17.51.21.66l.23-.71,1.06-3.07h.78v4.41h-.56v-3.69l-1.28,3.69h-.53l-1.27-3.75v3.75Z"/><path class="cls-5" d="M339.24,129.43l1.69-4.41h.63l1.81,4.41h-.67l-.51-1.33h-1.85l-.48,1.33Zm1.27-1.81H342l-.46-1.22c-.14-.37-.25-.68-.31-.91a6.62,6.62,0,0,1-.24.84Z"/><path class="cls-5" d="M344.07,129.43v-3.89h-1.45V125h3.49v.52h-1.46v3.89Z"/><path class="cls-5" d="M346.29,129.43V125h3.19v.52h-2.61v1.35h2.44v.52h-2.44v1.5h2.71v.52Z"/><path class="cls-5" d="M350,129.43V125h2a2.63,2.63,0,0,1,.9.12,1,1,0,0,1,.49.42,1.27,1.27,0,0,1,.18.67,1.13,1.13,0,0,1-.3.79,1.61,1.61,0,0,1-.94.41,1.53,1.53,0,0,1,.35.21,3.24,3.24,0,0,1,.48.59l.77,1.2h-.73l-.59-.92q-.25-.39-.42-.6a1.68,1.68,0,0,0-.29-.3,1.59,1.59,0,0,0-.27-.12l-.33,0h-.67v2Zm.59-2.46h1.25a2.05,2.05,0,0,0,.63-.08.71.71,0,0,0,.34-.27.69.69,0,0,0,.12-.39.68.68,0,0,0-.23-.52,1.09,1.09,0,0,0-.72-.2h-1.39Z"/><path class="cls-5" d="M354.07,129.43V125h.59v4.41Z"/><path class="cls-5" d="M354.77,129.43l1.69-4.41h.63l1.8,4.41h-.66l-.51-1.33h-1.85l-.48,1.33Zm1.27-1.81h1.5l-.46-1.22c-.15-.37-.25-.68-.32-.91a4.42,4.42,0,0,1-.24.84Z"/><path class="cls-5" d="M358.91,129.43V125h.58v3.89h2.17v.52Z"/></g><g class="cls-27"><path class="cls-13" d="M257.83,17.93V13.52h1.67a3.91,3.91,0,0,1,.67,0,1.33,1.33,0,0,1,.54.21,1.06,1.06,0,0,1,.36.42,1.39,1.39,0,0,1,.13.61,1.36,1.36,0,0,1-.36.95,1.71,1.71,0,0,1-1.29.39h-1.13v1.79Zm.59-2.31h1.14a1.2,1.2,0,0,0,.8-.21.75.75,0,0,0,.24-.6.82.82,0,0,0-.14-.47.65.65,0,0,0-.37-.26,2.24,2.24,0,0,0-.54,0h-1.13Z"/><path class="cls-13" d="M264.84,13.52h.58v2.55a3,3,0,0,1-.15,1.05,1.29,1.29,0,0,1-.54.64,2,2,0,0,1-1,.25,2.2,2.2,0,0,1-1-.22,1.21,1.21,0,0,1-.56-.62,3,3,0,0,1-.17-1.1V13.52h.59v2.54a2.53,2.53,0,0,0,.1.85.84.84,0,0,0,.37.42,1.26,1.26,0,0,0,.64.15,1.21,1.21,0,0,0,.91-.29,1.66,1.66,0,0,0,.28-1.13Z"/><path class="cls-13" d="M266.37,17.93V13.52H268a2,2,0,0,1,.81.13,1,1,0,0,1,.48.42,1,1,0,0,1,.17.58,1,1,0,0,1-.15.53,1.07,1.07,0,0,1-.46.4,1.21,1.21,0,0,1,.61.4,1,1,0,0,1,.22.67,1.41,1.41,0,0,1-.13.58,1.15,1.15,0,0,1-.33.41,1.34,1.34,0,0,1-.48.22,2.88,2.88,0,0,1-.71.07Zm.58-2.56h1a1.88,1.88,0,0,0,.55,0,.58.58,0,0,0,.34-.22.66.66,0,0,0,.11-.38.64.64,0,0,0-.11-.39.53.53,0,0,0-.3-.23,2.55,2.55,0,0,0-.67-.06H267Zm0,2h1.1l.4,0a1.27,1.27,0,0,0,.33-.12A.7.7,0,0,0,269,17a.84.84,0,0,0,.08-.37.77.77,0,0,0-.12-.43.69.69,0,0,0-.35-.25,2.15,2.15,0,0,0-.65-.08h-1Z"/><path class="cls-13" d="M270.48,17.93V13.52h.58v3.89h2.17v.52Z"/><path class="cls-13" d="M274,17.93V13.52h.58v4.41Z"/><path class="cls-13" d="M278.79,16.38l.58.15a1.94,1.94,0,0,1-.66,1.1,1.85,1.85,0,0,1-1.17.38,2.14,2.14,0,0,1-1.16-.29,1.87,1.87,0,0,1-.68-.85,3.06,3.06,0,0,1-.23-1.18,2.65,2.65,0,0,1,.26-1.2,1.88,1.88,0,0,1,.75-.78,2.17,2.17,0,0,1,1.07-.26,1.83,1.83,0,0,1,1.11.33,1.78,1.78,0,0,1,.63,1l-.57.13a1.34,1.34,0,0,0-.45-.7,1.22,1.22,0,0,0-.73-.22,1.45,1.45,0,0,0-.85.25,1.26,1.26,0,0,0-.48.65,2.75,2.75,0,0,0-.14.85,2.68,2.68,0,0,0,.17,1,1.15,1.15,0,0,0,.51.63,1.41,1.41,0,0,0,.74.21,1.23,1.23,0,0,0,.83-.29A1.47,1.47,0,0,0,278.79,16.38Z"/><path class="cls-13" d="M280.19,17.93V13.52h.58v4.41Z"/><path class="cls-13" d="M281.8,17.93V13.52h1.52a3.83,3.83,0,0,1,.78.06,1.53,1.53,0,0,1,.65.32,1.81,1.81,0,0,1,.52.75,2.89,2.89,0,0,1,.17,1,3,3,0,0,1-.11.89,2.24,2.24,0,0,1-.3.64,1.53,1.53,0,0,1-.93.62,3,3,0,0,1-.71.08Zm.58-.52h.94a2.51,2.51,0,0,0,.69-.08,1,1,0,0,0,.39-.23,1.39,1.39,0,0,0,.33-.56,3,3,0,0,0,.11-.85,2.07,2.07,0,0,0-.22-1.06,1.2,1.2,0,0,0-.56-.5,2.21,2.21,0,0,0-.75-.09h-.93Z"/><path class="cls-13" d="M285.76,17.93l1.7-4.41h.62l1.81,4.41h-.67l-.51-1.34h-1.84l-.49,1.34ZM287,16.12h1.49l-.46-1.22c-.14-.37-.24-.68-.31-.92a6.32,6.32,0,0,1-.24.85Z"/><path class="cls-13" d="M290.36,17.93V13.52h1.52a3.83,3.83,0,0,1,.78.06,1.59,1.59,0,0,1,.65.32,1.91,1.91,0,0,1,.52.75,3.12,3.12,0,0,1,.17,1,3,3,0,0,1-.12.89,1.81,1.81,0,0,1-.3.64,1.38,1.38,0,0,1-.4.4,1.54,1.54,0,0,1-.52.22,3.08,3.08,0,0,1-.71.08Zm.58-.52h.94a2.51,2.51,0,0,0,.69-.08,1.06,1.06,0,0,0,.39-.23,1.27,1.27,0,0,0,.32-.56,2.64,2.64,0,0,0,.12-.85,2.06,2.06,0,0,0-.23-1.06,1.14,1.14,0,0,0-.55-.5,2.3,2.3,0,0,0-.75-.09h-.93Z"/></g><g class="cls-27"><path class="cls-8" d="M335.25,69.77l1.69-4.41h.63l1.81,4.41h-.67l-.51-1.34h-1.85l-.48,1.34ZM336.52,68H338l-.46-1.22a9,9,0,0,1-.31-.92,6.32,6.32,0,0,1-.24.85Z"/><path class="cls-8" d="M339.85,69.77V65.36h2a2.53,2.53,0,0,1,.89.12,1,1,0,0,1,.5.42,1.26,1.26,0,0,1,.18.66,1.1,1.1,0,0,1-.31.8,1.49,1.49,0,0,1-.93.4,2,2,0,0,1,.35.22,3.24,3.24,0,0,1,.48.59l.77,1.2H343l-.58-.92c-.17-.26-.31-.46-.42-.61a1.58,1.58,0,0,0-.3-.29.88.88,0,0,0-.26-.12l-.33,0h-.67v2Zm.59-2.46h1.25a1.75,1.75,0,0,0,.63-.09.64.64,0,0,0,.34-.26.7.7,0,0,0,.12-.4.66.66,0,0,0-.23-.51,1,1,0,0,0-.72-.2h-1.39Z"/><path class="cls-8" d="M345.3,69.77V65.88h-1.45v-.52h3.5v.52h-1.46v3.89Z"/><path class="cls-8" d="M348,69.77V65.36h3.18v.52h-2.6v1.35H351v.52h-2.44v1.5h2.71v.52Z"/><path class="cls-8" d="M351.85,68.35l.55,0a1.19,1.19,0,0,0,.19.54,1,1,0,0,0,.44.34,1.65,1.65,0,0,0,.68.13,1.55,1.55,0,0,0,.59-.1.78.78,0,0,0,.38-.27.64.64,0,0,0,.12-.38.56.56,0,0,0-.12-.36.9.9,0,0,0-.4-.26,5.49,5.49,0,0,0-.78-.21,3.74,3.74,0,0,1-.85-.28,1.2,1.2,0,0,1-.47-.41,1,1,0,0,1-.16-.55,1.16,1.16,0,0,1,.19-.62,1.13,1.13,0,0,1,.56-.44,2.07,2.07,0,0,1,.8-.15,2.33,2.33,0,0,1,.87.15,1.29,1.29,0,0,1,.58.47,1.34,1.34,0,0,1,.21.69l-.56.05a1,1,0,0,0-.3-.64,1.58,1.58,0,0,0-1.54,0,.6.6,0,0,0-.25.47.48.48,0,0,0,.18.39,2.33,2.33,0,0,0,.88.32,5.07,5.07,0,0,1,1,.28,1.33,1.33,0,0,1,.57.45,1.11,1.11,0,0,1,.18.63,1.16,1.16,0,0,1-.2.66,1.26,1.26,0,0,1-.58.48,1.93,1.93,0,0,1-.85.18,2.45,2.45,0,0,1-1-.18,1.41,1.41,0,0,1-.63-.52A1.48,1.48,0,0,1,351.85,68.35Z"/><path class="cls-8" d="M357.88,69.77V65.36h3.19v.52h-2.6v1.35h2.44v.52h-2.44v1.5h2.71v.52Z"/><path class="cls-8" d="M361.78,68.35l.55,0a1.19,1.19,0,0,0,.19.54,1,1,0,0,0,.44.34,1.62,1.62,0,0,0,.68.13,1.59,1.59,0,0,0,.59-.1.78.78,0,0,0,.38-.27.64.64,0,0,0,.12-.38.56.56,0,0,0-.12-.36.9.9,0,0,0-.4-.26,5.94,5.94,0,0,0-.78-.21,3.74,3.74,0,0,1-.85-.28,1.2,1.2,0,0,1-.47-.41,1,1,0,0,1-.16-.55,1.08,1.08,0,0,1,.19-.62,1.15,1.15,0,0,1,.55-.44,2.16,2.16,0,0,1,.81-.15,2.33,2.33,0,0,1,.87.15,1.21,1.21,0,0,1,.57.47,1.26,1.26,0,0,1,.22.69l-.56.05a1,1,0,0,0-.3-.64,1.58,1.58,0,0,0-1.54,0,.58.58,0,0,0-.25.47.48.48,0,0,0,.18.39,2.33,2.33,0,0,0,.88.32,5.32,5.32,0,0,1,1,.28,1.33,1.33,0,0,1,.57.45,1.11,1.11,0,0,1,.18.63,1.16,1.16,0,0,1-.2.66,1.26,1.26,0,0,1-.58.48,1.93,1.93,0,0,1-.85.18,2.45,2.45,0,0,1-1-.18,1.41,1.41,0,0,1-.63-.52A1.48,1.48,0,0,1,361.78,68.35Z"/><path class="cls-8" d="M369.24,68.22l.58.15a1.94,1.94,0,0,1-.66,1.1,1.85,1.85,0,0,1-1.17.38,2.14,2.14,0,0,1-1.16-.29,1.85,1.85,0,0,1-.67-.85,2.9,2.9,0,0,1-.24-1.18,2.65,2.65,0,0,1,.26-1.2,1.88,1.88,0,0,1,.75-.78,2.17,2.17,0,0,1,1.07-.26,1.86,1.86,0,0,1,1.12.33,1.78,1.78,0,0,1,.63.95l-.58.13a1.34,1.34,0,0,0-.45-.7,1.2,1.2,0,0,0-.73-.22,1.45,1.45,0,0,0-.85.25,1.26,1.26,0,0,0-.48.65,2.75,2.75,0,0,0-.14.85,2.68,2.68,0,0,0,.17,1,1.24,1.24,0,0,0,.51.63,1.42,1.42,0,0,0,.75.21,1.27,1.27,0,0,0,.83-.29A1.46,1.46,0,0,0,369.24,68.22Z"/><path class="cls-8" d="M370.55,69.77V65.36h3.19v.52h-2.61v1.35h2.44v.52h-2.44v1.5h2.71v.52Zm1.2-4.68.4-.84h.71l-.66.84Z"/><path class="cls-8" d="M374.64,69.77V65.36h.6l2.32,3.46V65.36h.56v4.41h-.6l-2.32-3.46v3.46Z"/><path class="cls-8" d="M379.2,69.77V65.36h.58v4.41Z"/><path class="cls-8" d="M384,68.22l.59.15a2,2,0,0,1-.66,1.1,1.85,1.85,0,0,1-1.17.38,2.14,2.14,0,0,1-1.16-.29,1.87,1.87,0,0,1-.68-.85,3.06,3.06,0,0,1-.23-1.18,2.65,2.65,0,0,1,.26-1.2,1.88,1.88,0,0,1,.75-.78,2.15,2.15,0,0,1,1.07-.26,1.83,1.83,0,0,1,1.11.33,1.78,1.78,0,0,1,.63.95l-.57.13a1.34,1.34,0,0,0-.45-.7,1.22,1.22,0,0,0-.73-.22,1.45,1.45,0,0,0-.85.25,1.26,1.26,0,0,0-.48.65,2.75,2.75,0,0,0-.14.85,2.69,2.69,0,0,0,.16,1,1.24,1.24,0,0,0,.51.63,1.42,1.42,0,0,0,.75.21,1.23,1.23,0,0,0,.83-.29A1.41,1.41,0,0,0,384,68.22Z"/><path class="cls-8" d="M384.77,69.77l1.69-4.41h.63l1.81,4.41h-.67l-.51-1.34h-1.84l-.49,1.34ZM386,68h1.5l-.46-1.22a9,9,0,0,1-.31-.92,6.32,6.32,0,0,1-.24.85Z"/><path class="cls-8" d="M389.17,68.35l.55,0a1.08,1.08,0,0,0,.18.54,1,1,0,0,0,.44.34,1.65,1.65,0,0,0,.68.13,1.55,1.55,0,0,0,.59-.1A.73.73,0,0,0,392,69a.64.64,0,0,0,.12-.38.56.56,0,0,0-.12-.36.92.92,0,0,0-.39-.26,5.78,5.78,0,0,0-.79-.21,3.93,3.93,0,0,1-.85-.28,1.2,1.2,0,0,1-.47-.41,1,1,0,0,1-.16-.55,1.16,1.16,0,0,1,.19-.62,1.13,1.13,0,0,1,.56-.44,2.09,2.09,0,0,1,.81-.15,2.31,2.31,0,0,1,.86.15,1.29,1.29,0,0,1,.58.47,1.34,1.34,0,0,1,.21.69l-.56.05a1,1,0,0,0-.3-.64,1.2,1.2,0,0,0-.77-.21,1.23,1.23,0,0,0-.77.19.59.59,0,0,0-.24.47.48.48,0,0,0,.17.39,2.33,2.33,0,0,0,.88.32,5.07,5.07,0,0,1,1,.28,1.33,1.33,0,0,1,.57.45,1,1,0,0,1,.19.63,1.17,1.17,0,0,1-.21.66,1.23,1.23,0,0,1-.57.48,2,2,0,0,1-.85.18,2.5,2.5,0,0,1-1-.18,1.42,1.42,0,0,1-.87-1.32Z"/><path class="cls-8" d="M337,77.16V75.29l-1.7-2.54H336l.87,1.33q.24.38.45.75.19-.35.48-.78l.85-1.3h.68l-1.76,2.54v1.87Z"/><path class="cls-8" d="M341.46,77.16V72.75h3.18v.52H342v1.35h2.44v.52H342v1.5h2.71v.52Z"/><path class="cls-8" d="M345.35,75.74l.55,0a1.19,1.19,0,0,0,.19.54.92.92,0,0,0,.44.34,1.65,1.65,0,0,0,.68.13,1.55,1.55,0,0,0,.59-.1.78.78,0,0,0,.38-.27.64.64,0,0,0,.12-.38.6.6,0,0,0-.12-.36.9.9,0,0,0-.4-.26,7.43,7.43,0,0,0-.78-.21,3.74,3.74,0,0,1-.85-.28,1.12,1.12,0,0,1-.47-.41,1,1,0,0,1-.16-.55,1.16,1.16,0,0,1,.19-.62,1.13,1.13,0,0,1,.56-.44,2.07,2.07,0,0,1,.8-.15,2.33,2.33,0,0,1,.87.15,1.25,1.25,0,0,1,.79,1.16l-.56.05a1,1,0,0,0-.3-.64,1.55,1.55,0,0,0-1.54,0,.59.59,0,0,0-.25.46.48.48,0,0,0,.18.39,2.16,2.16,0,0,0,.88.32,6,6,0,0,1,1,.28,1.33,1.33,0,0,1,.57.45,1.11,1.11,0,0,1,.18.63,1.16,1.16,0,0,1-.2.66,1.26,1.26,0,0,1-.58.48,1.93,1.93,0,0,1-.85.18,2.45,2.45,0,0,1-1-.18,1.35,1.35,0,0,1-.63-.52A1.48,1.48,0,0,1,345.35,75.74Z"/><path class="cls-8" d="M349.66,77.16V72.75h1.67a5.31,5.31,0,0,1,.67,0,1.45,1.45,0,0,1,.54.21,1,1,0,0,1,.35.43,1.33,1.33,0,0,1,.14.6,1.36,1.36,0,0,1-.36,1,1.71,1.71,0,0,1-1.29.39h-1.13v1.79Zm.59-2.31h1.13a1.23,1.23,0,0,0,.81-.21.75.75,0,0,0,.24-.59.83.83,0,0,0-.14-.48.68.68,0,0,0-.37-.26,3,3,0,0,0-.55,0h-1.12Z"/><path class="cls-8" d="M353.78,77.16V72.75H357v.52h-2.6v1.35h2.43v.52h-2.43v1.5h2.7v.52Z"/><path class="cls-8" d="M361,75.62l.58.14a1.94,1.94,0,0,1-.66,1.1,1.85,1.85,0,0,1-1.17.38,2.14,2.14,0,0,1-1.16-.29,2,2,0,0,1-.68-.84,3.11,3.11,0,0,1-.23-1.19,2.65,2.65,0,0,1,.26-1.2,1.88,1.88,0,0,1,.75-.78,2.29,2.29,0,0,1,1.07-.26,1.83,1.83,0,0,1,1.11.33,1.68,1.68,0,0,1,.63.95l-.57.14a1.3,1.3,0,0,0-.45-.7,1.15,1.15,0,0,0-.73-.22,1.44,1.44,0,0,0-.85.24,1.26,1.26,0,0,0-.48.65,2.75,2.75,0,0,0-.14.85,2.64,2.64,0,0,0,.17,1,1.15,1.15,0,0,0,.51.63,1.41,1.41,0,0,0,.74.21,1.23,1.23,0,0,0,.83-.29A1.44,1.44,0,0,0,361,75.62Z"/><path class="cls-8" d="M363.45,77.16V73.27H362v-.52h3.49v.52H364v3.89Z"/><path class="cls-8" d="M365.61,77.16l1.69-4.41h.63l1.8,4.41h-.66l-.52-1.33h-1.84l-.48,1.33Zm1.27-1.81h1.49l-.46-1.22c-.14-.37-.24-.68-.31-.91a6.62,6.62,0,0,1-.24.84Zm.36-2.87.4-.84h.71l-.66.84Z"/><path class="cls-8" d="M373.34,75.62l.59.14a1.94,1.94,0,0,1-.66,1.1,1.85,1.85,0,0,1-1.17.38,2.14,2.14,0,0,1-1.16-.29,2,2,0,0,1-.68-.84,3.11,3.11,0,0,1-.23-1.19,2.65,2.65,0,0,1,.26-1.2,1.88,1.88,0,0,1,.75-.78,2.29,2.29,0,0,1,1.07-.26,1.83,1.83,0,0,1,1.11.33,1.73,1.73,0,0,1,.63.95l-.57.14a1.3,1.3,0,0,0-.45-.7,1.15,1.15,0,0,0-.73-.22,1.44,1.44,0,0,0-.85.24,1.26,1.26,0,0,0-.48.65,2.75,2.75,0,0,0-.14.85,2.64,2.64,0,0,0,.17,1,1.24,1.24,0,0,0,.51.63,1.41,1.41,0,0,0,.74.21,1.23,1.23,0,0,0,.83-.29A1.38,1.38,0,0,0,373.34,75.62Z"/><path class="cls-8" d="M377.54,72.75h.58V75.3a3.06,3.06,0,0,1-.15,1.06,1.26,1.26,0,0,1-.54.63,1.94,1.94,0,0,1-1,.25,2,2,0,0,1-1-.22,1.13,1.13,0,0,1-.56-.62,2.73,2.73,0,0,1-.17-1.1V72.75h.58V75.3a2.46,2.46,0,0,0,.11.84.82.82,0,0,0,.36.42,1.29,1.29,0,0,0,.64.15,1.25,1.25,0,0,0,.92-.29,1.71,1.71,0,0,0,.27-1.12Z"/><path class="cls-8" d="M379.07,77.16V72.75h.59v3.89h2.17v.52Z"/><path class="cls-8" d="M382.34,75a2.38,2.38,0,0,1,.59-1.71,2,2,0,0,1,1.53-.63,2.09,2.09,0,0,1,1.1.3,1.88,1.88,0,0,1,.74.81,2.53,2.53,0,0,1,.26,1.18,2.59,2.59,0,0,1-.27,1.2,1.81,1.81,0,0,1-.77.8,2.19,2.19,0,0,1-2.18,0,1.92,1.92,0,0,1-.74-.83A2.44,2.44,0,0,1,382.34,75Zm.61,0a1.77,1.77,0,0,0,.43,1.26,1.41,1.41,0,0,0,1.07.46,1.39,1.39,0,0,0,1.08-.47A1.82,1.82,0,0,0,386,75a2.28,2.28,0,0,0-.18-.94,1.35,1.35,0,0,0-.53-.62,1.45,1.45,0,0,0-.79-.22,1.52,1.52,0,0,0-1.07.42A1.9,1.9,0,0,0,383,75Z"/><path class="cls-8" d="M387.12,75.74l.55,0a1.08,1.08,0,0,0,.18.54.92.92,0,0,0,.44.34,1.65,1.65,0,0,0,.68.13,1.55,1.55,0,0,0,.59-.1.78.78,0,0,0,.38-.27.64.64,0,0,0,.12-.38.6.6,0,0,0-.12-.36.9.9,0,0,0-.4-.26,6.75,6.75,0,0,0-.78-.21,3.93,3.93,0,0,1-.85-.28,1.12,1.12,0,0,1-.47-.41,1,1,0,0,1-.16-.55,1.16,1.16,0,0,1,.19-.62,1.13,1.13,0,0,1,.56-.44,2.07,2.07,0,0,1,.8-.15,2.33,2.33,0,0,1,.87.15,1.25,1.25,0,0,1,.79,1.16l-.56.05a1,1,0,0,0-.3-.64,1.55,1.55,0,0,0-1.54,0,.57.57,0,0,0-.24.46.48.48,0,0,0,.17.39,2.16,2.16,0,0,0,.88.32,6,6,0,0,1,1,.28,1.33,1.33,0,0,1,.57.45,1.11,1.11,0,0,1,.18.63,1.16,1.16,0,0,1-.2.66,1.21,1.21,0,0,1-.58.48,1.92,1.92,0,0,1-.84.18,2.5,2.5,0,0,1-1-.18,1.35,1.35,0,0,1-.63-.52A1.4,1.4,0,0,1,387.12,75.74Z"/><path class="cls-8" d="M392.31,77.16,394,72.75h.63l1.81,4.41h-.67l-.51-1.33h-1.85l-.48,1.33Zm1.27-1.81h1.5l-.46-1.22c-.14-.37-.25-.68-.32-.91a5.25,5.25,0,0,1-.23.84Z"/><path class="cls-8" d="M396.91,77.16V72.75h2a2.53,2.53,0,0,1,.89.12,1,1,0,0,1,.49.42,1.19,1.19,0,0,1,.19.67,1.14,1.14,0,0,1-.31.79,1.55,1.55,0,0,1-.94.41,1.42,1.42,0,0,1,.36.21A3.24,3.24,0,0,1,400,76l.77,1.2h-.74l-.58-.92q-.25-.39-.42-.6a1.4,1.4,0,0,0-.3-.3,1.23,1.23,0,0,0-.26-.12l-.33,0h-.67v2Zm.59-2.46h1.25a2.1,2.1,0,0,0,.63-.08.71.71,0,0,0,.34-.27.73.73,0,0,0-.11-.91,1.09,1.09,0,0,0-.72-.2H397.5Z"/><path class="cls-8" d="M402.36,77.16V73.27h-1.45v-.52h3.49v.52h-1.46v3.89Z"/><path class="cls-8" d="M405,72.48l.4-.84h.71l-.66.84Zm.15,4.68V72.75h.59v4.41Z"/><path class="cls-8" d="M406.52,75.74l.55,0a1.08,1.08,0,0,0,.18.54.92.92,0,0,0,.44.34,1.65,1.65,0,0,0,.68.13,1.55,1.55,0,0,0,.59-.1.78.78,0,0,0,.38-.27.64.64,0,0,0,.12-.38.6.6,0,0,0-.12-.36.92.92,0,0,0-.39-.26,7.9,7.9,0,0,0-.79-.21,3.93,3.93,0,0,1-.85-.28,1.12,1.12,0,0,1-.47-.41,1,1,0,0,1-.16-.55,1.16,1.16,0,0,1,.19-.62,1.13,1.13,0,0,1,.56-.44,2.09,2.09,0,0,1,.81-.15,2.31,2.31,0,0,1,.86.15,1.25,1.25,0,0,1,.79,1.16l-.56.05a1,1,0,0,0-.3-.64,1.55,1.55,0,0,0-1.54,0,.57.57,0,0,0-.24.46.48.48,0,0,0,.17.39,2.16,2.16,0,0,0,.88.32,6,6,0,0,1,1,.28,1.33,1.33,0,0,1,.57.45,1.12,1.12,0,0,1,.19.63,1.17,1.17,0,0,1-.21.66,1.23,1.23,0,0,1-.57.48,2,2,0,0,1-.85.18,2.5,2.5,0,0,1-1-.18,1.35,1.35,0,0,1-.63-.52A1.4,1.4,0,0,1,406.52,75.74Z"/><path class="cls-8" d="M411.94,77.16V73.27h-1.45v-.52H414v.52h-1.46v3.89Z"/><path class="cls-8" d="M414.68,77.16V72.75h.59v4.41Z"/><path class="cls-8" d="M419.44,75.62l.59.14a2.06,2.06,0,0,1-.66,1.1,1.85,1.85,0,0,1-1.17.38A2.12,2.12,0,0,1,417,77a1.9,1.9,0,0,1-.68-.84,3.11,3.11,0,0,1-.23-1.19,2.65,2.65,0,0,1,.26-1.2,1.88,1.88,0,0,1,.75-.78,2.26,2.26,0,0,1,1.07-.26,1.83,1.83,0,0,1,1.11.33A1.78,1.78,0,0,1,420,74l-.57.14a1.36,1.36,0,0,0-.45-.7,1.15,1.15,0,0,0-.73-.22,1.44,1.44,0,0,0-.85.24,1.26,1.26,0,0,0-.48.65,2.75,2.75,0,0,0-.14.85,2.65,2.65,0,0,0,.16,1,1.24,1.24,0,0,0,.51.63,1.42,1.42,0,0,0,.75.21,1.23,1.23,0,0,0,.83-.29A1.38,1.38,0,0,0,419.44,75.62Z"/><path class="cls-8" d="M420.57,75a2.34,2.34,0,0,1,.59-1.71,2,2,0,0,1,1.52-.63,2.06,2.06,0,0,1,1.1.3,1.84,1.84,0,0,1,.75.81,2.65,2.65,0,0,1,.25,1.18,2.59,2.59,0,0,1-.27,1.2,1.79,1.79,0,0,1-.76.8,2.21,2.21,0,0,1-2.19,0,2,2,0,0,1-.74-.83A2.43,2.43,0,0,1,420.57,75Zm.6,0a1.77,1.77,0,0,0,.43,1.26,1.41,1.41,0,0,0,1.07.46,1.43,1.43,0,0,0,1.09-.47,1.86,1.86,0,0,0,.42-1.31A2.28,2.28,0,0,0,424,74a1.35,1.35,0,0,0-.53-.62,1.43,1.43,0,0,0-.79-.22,1.48,1.48,0,0,0-1.06.42A1.9,1.9,0,0,0,421.17,75Z"/><path class="cls-8" d="M425.34,75.74l.55,0a1.19,1.19,0,0,0,.18.54,1,1,0,0,0,.44.34,1.65,1.65,0,0,0,.68.13,1.55,1.55,0,0,0,.59-.1.73.73,0,0,0,.38-.27.65.65,0,0,0,.13-.38.6.6,0,0,0-.12-.36,1,1,0,0,0-.4-.26,7.9,7.9,0,0,0-.79-.21,3.93,3.93,0,0,1-.85-.28,1.12,1.12,0,0,1-.47-.41,1,1,0,0,1-.15-.55,1.08,1.08,0,0,1,.19-.62,1.11,1.11,0,0,1,.55-.44,2.09,2.09,0,0,1,.81-.15,2.28,2.28,0,0,1,.86.15,1.3,1.3,0,0,1,.58.47,1.37,1.37,0,0,1,.22.69l-.56.05a1,1,0,0,0-.31-.64,1.2,1.2,0,0,0-.77-.21,1.22,1.22,0,0,0-.77.2.57.57,0,0,0-.24.46.51.51,0,0,0,.17.39,2.23,2.23,0,0,0,.88.32,6.52,6.52,0,0,1,1,.28,1.47,1.47,0,0,1,.57.45,1.11,1.11,0,0,1,.18.63,1.24,1.24,0,0,1-.2.66,1.31,1.31,0,0,1-.58.48,2,2,0,0,1-.85.18,2.5,2.5,0,0,1-1-.18,1.4,1.4,0,0,1-.63-.52A1.56,1.56,0,0,1,425.34,75.74Z"/></g><g class="cls-27"><path class="cls-6" d="M254.48,122.58l1.69-4.41h.63l1.81,4.41h-.67l-.51-1.34h-1.85l-.48,1.34Zm1.27-1.81h1.5l-.46-1.22a9,9,0,0,1-.31-.92,6.32,6.32,0,0,1-.24.85Z"/><path class="cls-6" d="M259.08,122.58v-4.41h2a2.53,2.53,0,0,1,.89.12,1,1,0,0,1,.49.42,1.18,1.18,0,0,1,.19.66,1.1,1.1,0,0,1-.31.8,1.49,1.49,0,0,1-.93.4,2,2,0,0,1,.35.22,3.24,3.24,0,0,1,.48.59l.77,1.2h-.73l-.59-.92c-.17-.26-.31-.46-.42-.61a1.58,1.58,0,0,0-.3-.29.88.88,0,0,0-.26-.12l-.33,0h-.67v2Zm.59-2.46h1.25a1.75,1.75,0,0,0,.63-.09.64.64,0,0,0,.34-.26.7.7,0,0,0,.12-.4.66.66,0,0,0-.23-.51,1,1,0,0,0-.72-.2h-1.39Z"/><path class="cls-6" d="M264.53,122.58v-3.89h-1.45v-.52h3.5v.52h-1.46v3.89Z"/><path class="cls-6" d="M267.19,122.58v-4.41h3.18v.52h-2.6V120h2.44v.52h-2.44v1.5h2.71v.52Z"/><path class="cls-6" d="M271.08,121.16l.55,0a1.19,1.19,0,0,0,.19.54,1,1,0,0,0,.44.34,1.65,1.65,0,0,0,.68.13,1.55,1.55,0,0,0,.59-.1.78.78,0,0,0,.38-.27.64.64,0,0,0,.12-.38.56.56,0,0,0-.12-.36.9.9,0,0,0-.4-.26,5.49,5.49,0,0,0-.78-.21,3.74,3.74,0,0,1-.85-.28,1.2,1.2,0,0,1-.47-.41,1,1,0,0,1-.16-.55,1.16,1.16,0,0,1,.19-.62,1.13,1.13,0,0,1,.56-.44,2.07,2.07,0,0,1,.8-.15,2.33,2.33,0,0,1,.87.15,1.29,1.29,0,0,1,.58.47,1.34,1.34,0,0,1,.21.69l-.56,0a1,1,0,0,0-.3-.64,1.58,1.58,0,0,0-1.54,0,.59.59,0,0,0-.24.47.48.48,0,0,0,.17.39,2.33,2.33,0,0,0,.88.32,5.07,5.07,0,0,1,1,.28,1.33,1.33,0,0,1,.57.45,1.11,1.11,0,0,1,.18.63,1.16,1.16,0,0,1-.2.66,1.21,1.21,0,0,1-.58.48,1.93,1.93,0,0,1-.85.18,2.45,2.45,0,0,1-1-.18,1.41,1.41,0,0,1-.63-.52A1.48,1.48,0,0,1,271.08,121.16Z"/><path class="cls-6" d="M277.1,122.58v-4.41h1.67a3.91,3.91,0,0,1,.67,0,1.45,1.45,0,0,1,.54.21,1,1,0,0,1,.35.42,1.4,1.4,0,0,1,.14.61,1.36,1.36,0,0,1-.36,1,1.71,1.71,0,0,1-1.29.39h-1.13v1.79Zm.59-2.31h1.14a1.22,1.22,0,0,0,.8-.21.75.75,0,0,0,.24-.6.82.82,0,0,0-.14-.47.68.68,0,0,0-.37-.26,2.28,2.28,0,0,0-.55,0h-1.12Z"/><path class="cls-6" d="M281.19,122.58v-4.41h.58v3.89h2.17v.52Z"/><path class="cls-6" d="M284.15,122.58l1.7-4.41h.62l1.81,4.41h-.66l-.52-1.34h-1.84l-.49,1.34Zm1.27-1.81h1.5l-.46-1.22a9,9,0,0,1-.31-.92,6.32,6.32,0,0,1-.24.85Zm.37-2.87.4-.84h.71l-.66.84Z"/><path class="cls-6" d="M288.55,121.16l.55,0a1.08,1.08,0,0,0,.18.54,1,1,0,0,0,.44.34,1.65,1.65,0,0,0,.68.13,1.55,1.55,0,0,0,.59-.1.73.73,0,0,0,.38-.27.65.65,0,0,0,.13-.38.56.56,0,0,0-.12-.36,1,1,0,0,0-.4-.26,5.78,5.78,0,0,0-.79-.21,3.93,3.93,0,0,1-.85-.28,1.2,1.2,0,0,1-.47-.41,1,1,0,0,1-.15-.55,1.08,1.08,0,0,1,.19-.62,1.11,1.11,0,0,1,.55-.44,2.09,2.09,0,0,1,.81-.15,2.31,2.31,0,0,1,.86.15,1.29,1.29,0,0,1,.58.47,1.25,1.25,0,0,1,.21.69l-.55,0a1,1,0,0,0-.31-.64,1.2,1.2,0,0,0-.77-.21,1.23,1.23,0,0,0-.77.19.59.59,0,0,0-.24.47.51.51,0,0,0,.17.39,2.4,2.4,0,0,0,.88.32,5.49,5.49,0,0,1,1,.28,1.36,1.36,0,0,1,.56.45,1,1,0,0,1,.19.63,1.24,1.24,0,0,1-.2.66,1.31,1.31,0,0,1-.58.48,2,2,0,0,1-.85.18,2.5,2.5,0,0,1-1-.18,1.41,1.41,0,0,1-.63-.52A1.56,1.56,0,0,1,288.55,121.16Z"/><path class="cls-6" d="M294,122.58v-3.89h-1.46v-.52H296v.52h-1.46v3.89Z"/><path class="cls-6" d="M296.72,122.58v-4.41h.58v4.41Z"/><path class="cls-6" d="M301.48,121l.58.15a1.94,1.94,0,0,1-.66,1.1,1.85,1.85,0,0,1-1.17.38,2.14,2.14,0,0,1-1.16-.29,1.94,1.94,0,0,1-.68-.85,3.06,3.06,0,0,1-.23-1.18,2.65,2.65,0,0,1,.26-1.2,1.88,1.88,0,0,1,.75-.78,2.17,2.17,0,0,1,1.07-.26,1.83,1.83,0,0,1,1.11.33,1.68,1.68,0,0,1,.63.95l-.57.13a1.34,1.34,0,0,0-.45-.7,1.22,1.22,0,0,0-.73-.22,1.45,1.45,0,0,0-.85.25,1.26,1.26,0,0,0-.48.65,2.75,2.75,0,0,0-.14.85,2.68,2.68,0,0,0,.17,1,1.24,1.24,0,0,0,.51.63,1.41,1.41,0,0,0,.74.21,1.23,1.23,0,0,0,.83-.29A1.47,1.47,0,0,0,301.48,121Z"/><path class="cls-6" d="M302.29,122.58l1.7-4.41h.63l1.8,4.41h-.67l-.51-1.34H303.4l-.49,1.34Zm1.28-1.81h1.49l-.46-1.22c-.14-.37-.24-.68-.31-.92a6.32,6.32,0,0,1-.24.85Z"/><path class="cls-6" d="M306.69,121.16l.55,0a1.19,1.19,0,0,0,.18.54,1,1,0,0,0,.44.34,1.65,1.65,0,0,0,.68.13,1.55,1.55,0,0,0,.59-.1.73.73,0,0,0,.38-.27.65.65,0,0,0,.13-.38.57.57,0,0,0-.13-.36.92.92,0,0,0-.39-.26,5.78,5.78,0,0,0-.79-.21,3.93,3.93,0,0,1-.85-.28,1.2,1.2,0,0,1-.47-.41,1,1,0,0,1-.15-.55,1.08,1.08,0,0,1,.19-.62,1.11,1.11,0,0,1,.55-.44,2.09,2.09,0,0,1,.81-.15,2.28,2.28,0,0,1,.86.15,1.29,1.29,0,0,1,.58.47,1.34,1.34,0,0,1,.22.69l-.56,0a1,1,0,0,0-.31-.64,1.2,1.2,0,0,0-.77-.21,1.23,1.23,0,0,0-.77.19.59.59,0,0,0-.24.47.51.51,0,0,0,.17.39,2.4,2.4,0,0,0,.88.32,5.49,5.49,0,0,1,1,.28,1.36,1.36,0,0,1,.56.45,1,1,0,0,1,.19.63,1.24,1.24,0,0,1-.2.66,1.31,1.31,0,0,1-.58.48,2,2,0,0,1-.85.18,2.5,2.5,0,0,1-1-.18,1.41,1.41,0,0,1-.63-.52A1.56,1.56,0,0,1,306.69,121.16Z"/><path class="cls-6" d="M256.21,130V128.1l-1.7-2.54h.71l.87,1.33q.24.38.45.75.19-.35.48-.78l.85-1.3h.68l-1.76,2.54V130Z"/><path class="cls-6" d="M261.93,130l-1.7-4.41h.63l1.14,3.21c.1.25.17.49.24.72a6.67,6.67,0,0,1,.23-.72l1.19-3.21h.6L262.53,130Z"/><path class="cls-6" d="M264.88,130v-4.41h.59V130Z"/><path class="cls-6" d="M266.3,128.55l.55,0a1.08,1.08,0,0,0,.18.54.92.92,0,0,0,.44.34,1.65,1.65,0,0,0,.68.13,1.55,1.55,0,0,0,.59-.1.73.73,0,0,0,.38-.27.64.64,0,0,0,.12-.38.6.6,0,0,0-.12-.36.92.92,0,0,0-.39-.26,7.9,7.9,0,0,0-.79-.21,3.93,3.93,0,0,1-.85-.28,1.12,1.12,0,0,1-.47-.41,1,1,0,0,1-.16-.55,1.16,1.16,0,0,1,.19-.62,1.13,1.13,0,0,1,.56-.44,2.09,2.09,0,0,1,.81-.15,2.31,2.31,0,0,1,.86.15,1.25,1.25,0,0,1,.79,1.16l-.56,0a.9.9,0,0,0-.3-.63A1.16,1.16,0,0,0,268,126a1.22,1.22,0,0,0-.77.2.57.57,0,0,0-.24.46.48.48,0,0,0,.17.39,2.16,2.16,0,0,0,.88.32,6,6,0,0,1,1,.28,1.33,1.33,0,0,1,.57.45,1.12,1.12,0,0,1,.19.63,1.17,1.17,0,0,1-.21.66,1.23,1.23,0,0,1-.57.48,2,2,0,0,1-.85.18,2.5,2.5,0,0,1-1-.18,1.35,1.35,0,0,1-.63-.52A1.4,1.4,0,0,1,266.3,128.55Z"/><path class="cls-6" d="M273.5,125.56h.58v2.55a3.06,3.06,0,0,1-.15,1.06,1.26,1.26,0,0,1-.54.63,1.89,1.89,0,0,1-1,.25,2.06,2.06,0,0,1-1-.22,1.19,1.19,0,0,1-.56-.61,3,3,0,0,1-.17-1.11v-2.55h.59v2.55a2.51,2.51,0,0,0,.1.84.84.84,0,0,0,.37.42,1.52,1.52,0,0,0,1.55-.14,1.64,1.64,0,0,0,.28-1.12Z"/><path class="cls-6" d="M274.57,130l1.69-4.41h.63l1.8,4.41H278l-.52-1.33h-1.84l-.48,1.33Zm1.27-1.81h1.49l-.46-1.22c-.14-.37-.24-.68-.31-.91a5.3,5.3,0,0,1-.24.84Z"/><path class="cls-6" d="M279.14,130v-4.41h.58v3.89h2.17V130Z"/><path class="cls-6" d="M282.6,130v-4.41h3.19v.52h-2.61v1.35h2.44V128h-2.44v1.5h2.71V130Z"/><path class="cls-6" d="M286.5,128.55l.55,0a1.08,1.08,0,0,0,.18.54.92.92,0,0,0,.44.34,1.65,1.65,0,0,0,.68.13,1.55,1.55,0,0,0,.59-.1.73.73,0,0,0,.38-.27.64.64,0,0,0,.12-.38.6.6,0,0,0-.12-.36.92.92,0,0,0-.39-.26,7.9,7.9,0,0,0-.79-.21,3.93,3.93,0,0,1-.85-.28,1.12,1.12,0,0,1-.47-.41,1,1,0,0,1-.15-.55,1.15,1.15,0,0,1,.18-.62,1.18,1.18,0,0,1,.56-.44,2.09,2.09,0,0,1,.81-.15,2.31,2.31,0,0,1,.86.15,1.25,1.25,0,0,1,.79,1.16l-.56,0a.9.9,0,0,0-.3-.63,1.14,1.14,0,0,0-.77-.22,1.22,1.22,0,0,0-.77.2.57.57,0,0,0-.24.46.48.48,0,0,0,.17.39,2.16,2.16,0,0,0,.88.32,6,6,0,0,1,1,.28,1.33,1.33,0,0,1,.57.45,1,1,0,0,1,.19.63,1.17,1.17,0,0,1-.21.66,1.23,1.23,0,0,1-.57.48,2,2,0,0,1-.85.18,2.5,2.5,0,0,1-1-.18,1.35,1.35,0,0,1-.63-.52A1.4,1.4,0,0,1,286.5,128.55Z"/></g><g class="cls-27"><path class="cls-12" d="M334.68,16.52l.58.15a1.94,1.94,0,0,1-.66,1.1,1.8,1.8,0,0,1-1.16.38,2.12,2.12,0,0,1-1.16-.29,1.81,1.81,0,0,1-.68-.85,2.89,2.89,0,0,1-.23-1.18,2.53,2.53,0,0,1,.26-1.2,1.82,1.82,0,0,1,.75-.78,2.15,2.15,0,0,1,1.07-.26,1.83,1.83,0,0,1,1.11.33,1.78,1.78,0,0,1,.63.95l-.57.13a1.47,1.47,0,0,0-.45-.7,1.22,1.22,0,0,0-.73-.22,1.43,1.43,0,0,0-.85.25,1.26,1.26,0,0,0-.48.65,2.49,2.49,0,0,0-.14.85,2.69,2.69,0,0,0,.16,1,1.24,1.24,0,0,0,.51.63,1.42,1.42,0,0,0,.75.21,1.25,1.25,0,0,0,.83-.29A1.41,1.41,0,0,0,334.68,16.52Z"/><path class="cls-12" d="M335.69,15.92a2.43,2.43,0,0,1,.59-1.72,2,2,0,0,1,1.52-.62,2.15,2.15,0,0,1,1.1.29,1.92,1.92,0,0,1,.75.82,2.66,2.66,0,0,1,.26,1.18,2.59,2.59,0,0,1-.27,1.2,1.86,1.86,0,0,1-.77.8,2.22,2.22,0,0,1-1.07.28,2.12,2.12,0,0,1-1.12-.31,2,2,0,0,1-.74-.82A2.43,2.43,0,0,1,335.69,15.92Zm.6,0a1.77,1.77,0,0,0,.43,1.26,1.41,1.41,0,0,0,1.07.46,1.43,1.43,0,0,0,1.09-.47,1.87,1.87,0,0,0,.42-1.31,2.28,2.28,0,0,0-.18-.94,1.35,1.35,0,0,0-.53-.62,1.43,1.43,0,0,0-.79-.23,1.51,1.51,0,0,0-1.06.43A1.89,1.89,0,0,0,336.29,15.93Z"/><path class="cls-12" d="M340.54,18.07V13.66h.59l2.32,3.46V13.66H344v4.41h-.6l-2.32-3.46v3.46Z"/><path class="cls-12" d="M346,18.07V14.18h-1.45v-.52H348v.52h-1.46v3.89Z"/><path class="cls-12" d="M348.53,18.07V13.66h3.19v.52h-2.61v1.35h2.44v.52h-2.44v1.5h2.71v.52Z"/><path class="cls-12" d="M352.5,18.07V13.66h.6l2.32,3.46V13.66H356v4.41h-.6l-2.32-3.46v3.46Z"/><path class="cls-12" d="M356.94,18.07V13.66h.58v4.41Z"/><path class="cls-12" d="M358.44,18.07V13.66H360a3.83,3.83,0,0,1,.78.06,1.59,1.59,0,0,1,.65.32,1.91,1.91,0,0,1,.52.75,3.12,3.12,0,0,1,.17,1.05,3,3,0,0,1-.12.89,1.81,1.81,0,0,1-.3.64,1.38,1.38,0,0,1-.4.4,1.36,1.36,0,0,1-.52.22,3.08,3.08,0,0,1-.71.08Zm.58-.52H360a2.51,2.51,0,0,0,.69-.08,1.06,1.06,0,0,0,.39-.23,1.27,1.27,0,0,0,.32-.56,2.64,2.64,0,0,0,.12-.85,2.06,2.06,0,0,0-.23-1.06,1.14,1.14,0,0,0-.55-.5,2.3,2.3,0,0,0-.75-.09H359Z"/><path class="cls-12" d="M362.59,15.92a2.43,2.43,0,0,1,.59-1.72,2,2,0,0,1,1.52-.62,2.12,2.12,0,0,1,1.1.29,1.92,1.92,0,0,1,.75.82,2.66,2.66,0,0,1,.26,1.18,2.59,2.59,0,0,1-.27,1.2,1.86,1.86,0,0,1-.77.8,2.22,2.22,0,0,1-1.07.28,2.06,2.06,0,0,1-1.11-.31,1.92,1.92,0,0,1-.75-.82A2.43,2.43,0,0,1,362.59,15.92Zm.6,0a1.77,1.77,0,0,0,.43,1.26,1.43,1.43,0,0,0,1.08.46,1.41,1.41,0,0,0,1.08-.47,1.88,1.88,0,0,0,.43-1.31,2.28,2.28,0,0,0-.19-.94,1.35,1.35,0,0,0-.53-.62,1.41,1.41,0,0,0-.79-.23,1.51,1.51,0,0,0-1.06.43A1.89,1.89,0,0,0,363.19,15.93Z"/><path class="cls-12" d="M369,18.07V13.66h1.51a3.88,3.88,0,0,1,.79.06A1.59,1.59,0,0,1,372,14a1.91,1.91,0,0,1,.52.75,3.12,3.12,0,0,1,.17,1.05,3,3,0,0,1-.12.89,1.81,1.81,0,0,1-.3.64,1.38,1.38,0,0,1-.4.4,1.36,1.36,0,0,1-.52.22,3.08,3.08,0,0,1-.71.08Zm.58-.52h.94a2.51,2.51,0,0,0,.69-.08,1.06,1.06,0,0,0,.39-.23,1.27,1.27,0,0,0,.32-.56,2.64,2.64,0,0,0,.12-.85,2.06,2.06,0,0,0-.23-1.06,1.14,1.14,0,0,0-.55-.5,2.3,2.3,0,0,0-.75-.09h-.93Z"/><path class="cls-12" d="M373.47,18.07V13.66h.58v4.41Z"/><path class="cls-12" d="M377,16.34v-.52h1.86v1.64A3,3,0,0,1,378,18a2.57,2.57,0,0,1-.94.18,2.54,2.54,0,0,1-1.18-.28,1.92,1.92,0,0,1-.81-.81,2.52,2.52,0,0,1-.27-1.17,2.78,2.78,0,0,1,.27-1.21,1.78,1.78,0,0,1,.78-.82,2.61,2.61,0,0,1,2-.12,1.43,1.43,0,0,1,.6.43,2,2,0,0,1,.34.72l-.53.15a1.64,1.64,0,0,0-.25-.53.93.93,0,0,0-.42-.31,1.46,1.46,0,0,0-.6-.12,1.86,1.86,0,0,0-.7.13,1.23,1.23,0,0,0-.47.32,1.52,1.52,0,0,0-.28.43,2.38,2.38,0,0,0-.16.89,2.13,2.13,0,0,0,.2,1,1.3,1.3,0,0,0,.59.59,1.93,1.93,0,0,0,.82.19,1.88,1.88,0,0,0,.74-.15,1.73,1.73,0,0,0,.55-.31v-.82Z"/><path class="cls-12" d="M379.74,18.07V13.66h.58v4.41Z"/><path class="cls-12" d="M382.35,18.07V14.18H380.9v-.52h3.5v.52h-1.46v3.89Z"/><path class="cls-12" d="M383.94,18.07l1.69-4.41h.63l1.8,4.41h-.66l-.52-1.34H385l-.49,1.34Zm1.27-1.81h1.49L386.24,15c-.14-.37-.24-.68-.31-.92a6.32,6.32,0,0,1-.24.85Z"/><path class="cls-12" d="M388.39,18.07V13.66H389v3.89h2.17v.52Z"/></g><g class="cls-27"><path class="cls-7" d="M186.27,122.19v-4.41h3v.52h-2.39v1.37h2.07v.52h-2.07v2Z"/><path class="cls-7" d="M189.77,120a2.42,2.42,0,0,1,.58-1.72,2,2,0,0,1,1.53-.62,2.18,2.18,0,0,1,1.1.29,2,2,0,0,1,.74.82A2.53,2.53,0,0,1,194,120a2.59,2.59,0,0,1-.27,1.2,1.81,1.81,0,0,1-.77.8,2.18,2.18,0,0,1-1.07.27,2.1,2.1,0,0,1-1.11-.3,1.9,1.9,0,0,1-.74-.82A2.43,2.43,0,0,1,189.77,120Zm.6,0a1.77,1.77,0,0,0,.43,1.26,1.41,1.41,0,0,0,1.07.46,1.43,1.43,0,0,0,1.09-.47,1.87,1.87,0,0,0,.42-1.31,2.28,2.28,0,0,0-.18-.94,1.43,1.43,0,0,0-.53-.63,1.54,1.54,0,0,0-1.86.21A1.93,1.93,0,0,0,190.37,120.05Z"/><path class="cls-7" d="M194.69,122.19v-4.41h1.95a2.6,2.6,0,0,1,.9.12,1,1,0,0,1,.49.42,1.26,1.26,0,0,1,.18.66,1.09,1.09,0,0,1-.3.79,1.47,1.47,0,0,1-.94.41,2,2,0,0,1,.35.22,3.74,3.74,0,0,1,.49.59l.76,1.2h-.73l-.58-.92a6.47,6.47,0,0,0-.43-.61,1.31,1.31,0,0,0-.29-.29.8.8,0,0,0-.27-.12l-.32,0h-.68v2Zm.58-2.46h1.26a1.73,1.73,0,0,0,.62-.09.6.6,0,0,0,.34-.26.7.7,0,0,0,.12-.4.62.62,0,0,0-.23-.51,1,1,0,0,0-.71-.2h-1.4Z"/><path class="cls-7" d="M199.05,122.19v-4.41h.88l1,3.12c.09.29.16.51.21.65.05-.16.12-.39.23-.7l1.06-3.07h.78v4.41h-.56V118.5l-1.28,3.69h-.53l-1.27-3.75v3.75Z"/><path class="cls-7" d="M203.66,122.19l1.7-4.41H206l1.81,4.41h-.67l-.51-1.34h-1.84l-.49,1.34Zm1.28-1.81h1.49l-.46-1.22c-.14-.37-.24-.68-.31-.92a6.32,6.32,0,0,1-.24.85Z"/><path class="cls-7" d="M211.35,120.64l.58.15a1.94,1.94,0,0,1-.66,1.1,1.84,1.84,0,0,1-1.17.37,2.06,2.06,0,0,1-1.16-.29,1.78,1.78,0,0,1-.67-.84A2.9,2.9,0,0,1,208,120a2.65,2.65,0,0,1,.26-1.2A1.88,1.88,0,0,1,209,118a2.17,2.17,0,0,1,1.07-.26,1.86,1.86,0,0,1,1.12.33,1.71,1.71,0,0,1,.62.95l-.57.13a1.34,1.34,0,0,0-.45-.7,1.2,1.2,0,0,0-.73-.22,1.45,1.45,0,0,0-.85.25,1.26,1.26,0,0,0-.48.65,2.75,2.75,0,0,0-.14.85,2.68,2.68,0,0,0,.17,1,1.24,1.24,0,0,0,.51.63,1.42,1.42,0,0,0,.75.21,1.27,1.27,0,0,0,.83-.29A1.49,1.49,0,0,0,211.35,120.64Z"/><path class="cls-7" d="M212.69,122.19v-4.41h.59v4.41Z"/><path class="cls-7" d="M214.07,120a2.43,2.43,0,0,1,.59-1.72,2,2,0,0,1,1.52-.62,2.12,2.12,0,0,1,1.1.29,1.92,1.92,0,0,1,.75.82,2.66,2.66,0,0,1,.26,1.18,2.59,2.59,0,0,1-.27,1.2,1.86,1.86,0,0,1-.77.8,2.21,2.21,0,0,1-1.07.27,2.07,2.07,0,0,1-1.11-.3,1.92,1.92,0,0,1-.75-.82A2.57,2.57,0,0,1,214.07,120Zm.6,0a1.81,1.81,0,0,0,.43,1.26,1.45,1.45,0,0,0,1.08.46,1.39,1.39,0,0,0,1.08-.47,1.83,1.83,0,0,0,.43-1.31,2.28,2.28,0,0,0-.18-.94,1.45,1.45,0,0,0-.54-.63,1.48,1.48,0,0,0-.78-.22,1.51,1.51,0,0,0-1.07.43A1.89,1.89,0,0,0,214.67,120.05Zm1.14-2.54.4-.84h.71l-.66.84Z"/><path class="cls-7" d="M219,122.19v-4.41h.6l2.31,3.46v-3.46h.56v4.41h-.6l-2.31-3.47v3.47Z"/><path class="cls-7" d="M189.38,128l.58.14a1.94,1.94,0,0,1-.66,1.1,1.8,1.8,0,0,1-1.16.38,2.12,2.12,0,0,1-1.16-.29,1.9,1.9,0,0,1-.68-.84,3,3,0,0,1-.23-1.19,2.53,2.53,0,0,1,.26-1.2,1.82,1.82,0,0,1,.75-.78,2.26,2.26,0,0,1,1.07-.26,1.83,1.83,0,0,1,1.11.33,1.78,1.78,0,0,1,.63.95l-.58.14a1.35,1.35,0,0,0-.44-.7,1.15,1.15,0,0,0-.73-.22,1.42,1.42,0,0,0-.85.24,1.26,1.26,0,0,0-.48.65,2.49,2.49,0,0,0-.14.85,2.65,2.65,0,0,0,.16,1,1.24,1.24,0,0,0,.51.63,1.42,1.42,0,0,0,.75.21,1.25,1.25,0,0,0,.83-.29A1.38,1.38,0,0,0,189.38,128Z"/><path class="cls-7" d="M193.52,125.17h.58v2.55a2.87,2.87,0,0,1-.15,1.06,1.26,1.26,0,0,1-.54.63,1.94,1.94,0,0,1-1,.25,2,2,0,0,1-1-.22,1.21,1.21,0,0,1-.56-.62,2.76,2.76,0,0,1-.17-1.1v-2.55h.58v2.55a2.46,2.46,0,0,0,.11.84.82.82,0,0,0,.36.42,1.29,1.29,0,0,0,.64.15,1.24,1.24,0,0,0,.92-.29,1.71,1.71,0,0,0,.27-1.12Z"/><path class="cls-7" d="M195,129.58v-4.41h.58v3.89h2.17v.52Z"/><path class="cls-7" d="M199.06,129.58v-3.89H197.6v-.52h3.5v.52h-1.46v3.89Z"/><path class="cls-7" d="M204.54,125.17h.58v2.55a3.1,3.1,0,0,1-.15,1.06,1.26,1.26,0,0,1-.54.63,2,2,0,0,1-1,.25,2,2,0,0,1-1-.22,1.21,1.21,0,0,1-.56-.62,3,3,0,0,1-.17-1.1v-2.55h.58v2.55a2.46,2.46,0,0,0,.11.84.8.8,0,0,0,.37.42,1.52,1.52,0,0,0,1.55-.14,1.7,1.7,0,0,0,.28-1.12Z"/><path class="cls-7" d="M206,129.58v-4.41h2a2.63,2.63,0,0,1,.9.12,1,1,0,0,1,.49.42,1.27,1.27,0,0,1,.18.67,1.13,1.13,0,0,1-.3.79,1.61,1.61,0,0,1-.94.41,1.53,1.53,0,0,1,.35.21,3.24,3.24,0,0,1,.48.59l.77,1.2h-.73l-.59-.92q-.26-.39-.42-.6a1.68,1.68,0,0,0-.29-.3,1.59,1.59,0,0,0-.27-.12l-.33,0h-.67v2Zm.59-2.46h1.25a2.05,2.05,0,0,0,.63-.08.71.71,0,0,0,.34-.27.69.69,0,0,0,.12-.39.68.68,0,0,0-.23-.52,1.09,1.09,0,0,0-.72-.2h-1.39Z"/><path class="cls-7" d="M209.94,129.58l1.7-4.41h.63l1.8,4.41h-.66l-.52-1.33h-1.84l-.49,1.33Zm1.28-1.81h1.49l-.46-1.22c-.14-.37-.24-.68-.31-.92a6.32,6.32,0,0,1-.24.85Z"/><path class="cls-7" d="M214.46,129.58v-4.41H215v3.89h2.17v.52Z"/></g><path class="cls-2" d="M55.38,84.06a33.15,33.15,0,1,1,33.15,33.15h0A33.15,33.15,0,0,1,55.38,84.06"/></svg>