<svg id="Capa_1" data-name="Capa 1" xmlns="http://www.w3.org/2000/svg" viewBox="0 0 78.18 35.12"><defs><style>.cls-1{fill:#42c0ec;}.cls-2,.cls-3{fill:#fff;}.cls-3{font-size:8.2px;font-family:MyriadPro-Bold, Myriad Pro;font-weight:700;}.cls-4{letter-spacing:-0.02em;}.cls-5{letter-spacing:0.01em;}.cls-6{letter-spacing:-0.02em;}</style></defs><rect class="cls-1" width="78.18" height="35.12"/><path class="cls-2" d="M18.08,5.3l3.43,5.17L24.9,5.3h4V17.65H24.38v-4.2l-2.49,4.2h-.75l-2.49-4.2v4.2H14.09V5.3Zm17.81,0V17.65H31V5.3ZM45,4.93A7.47,7.47,0,0,1,50.08,6.6l-2.21,3.64a3.43,3.43,0,0,0-2.44-.89,2,2,0,0,0-2.25,2.1c0,1.16.75,2,2.39,2a2.87,2.87,0,0,0,2.12-.74l2.53,3.17a6.93,6.93,0,0,1-5.4,2c-4.18,0-7.24-2.52-7.24-6.43C37.58,7.91,39.89,4.93,45,4.93Zm15.79.37,3.34,12.35H59.44l-.33-1.45H56l-.24,1.45H50.84L53.94,5.3ZM57.41,9h-.14l-.61,3.63h1.6Z"/><text class="cls-3" transform="translate(14.09 28.65)"><tspan class="cls-4">A</tspan><tspan class="cls-5" x="5.17" y="0">C</tspan><tspan x="10.16" y="0">TIVI</tspan><tspan class="cls-6" x="24.54" y="0">D</tspan><tspan x="30.11" y="0">ADES</tspan></text></svg>