<svg id="Capa_1" data-name="Capa 1" xmlns="http://www.w3.org/2000/svg" viewBox="0 0 78.18 35.12"><defs><style>.cls-1{fill:#42c0ec;}.cls-2{fill:#fff;}</style></defs><rect class="cls-1" width="78.18" height="35.12"/><path class="cls-2" d="M18.08,5.3l3.43,5.17L24.9,5.3h4V17.65H24.38v-4.2l-2.49,4.2h-.75l-2.49-4.2v4.2H14.09V5.3Zm17.81,0V17.65H31V5.3ZM45,4.93A7.47,7.47,0,0,1,50.08,6.6l-2.21,3.64a3.43,3.43,0,0,0-2.44-.89,2,2,0,0,0-2.25,2.1c0,1.16.75,2,2.39,2a2.87,2.87,0,0,0,2.12-.74l2.53,3.17a6.93,6.93,0,0,1-5.4,2c-4.18,0-7.24-2.52-7.24-6.43C37.58,7.91,39.89,4.93,45,4.93Zm15.79.37,3.34,12.35H59.44l-.33-1.45H56l-.24,1.45H50.84L53.94,5.3ZM57.41,9h-.14l-.61,3.63h1.6Z"/><path class="cls-2" d="M14.87,27.73a4.23,4.23,0,0,0,1.85.46c.76,0,1.17-.31,1.17-.8s-.35-.72-1.24-1c-1.23-.42-2-1.1-2-2.18,0-1.26,1.06-2.22,2.8-2.22a4.48,4.48,0,0,1,1.88.37l-.37,1.35a3.55,3.55,0,0,0-1.54-.35c-.73,0-1.08.33-1.08.71s.42.68,1.37,1c1.31.48,1.92,1.16,1.92,2.2,0,1.24-1,2.29-3,2.29a4.77,4.77,0,0,1-2.09-.45Z"/><path class="cls-2" d="M22.4,22.07v7.38H20.72V22.07Z"/><path class="cls-2" d="M25.27,23.47h-2v-1.4H29v1.4H27v6H25.27Z"/><path class="cls-2" d="M31.52,22.07v7.38H29.85V22.07Z"/><path class="cls-2" d="M39.73,25.68c0,2.43-1.47,3.89-3.63,3.89a3.44,3.44,0,0,1-3.47-3.75A3.57,3.57,0,0,1,36.22,22,3.44,3.44,0,0,1,39.73,25.68Zm-5.34.1c0,1.45.68,2.47,1.8,2.47S38,27.17,38,25.74s-.63-2.47-1.78-2.47S34.39,24.35,34.39,25.78Z"/><path class="cls-2" d="M43.82,29.45l-1.75-7.38h1.78l.56,3.05c.17.87.32,1.82.44,2.57h0c.12-.8.3-1.69.48-2.6l.63-3h1.77l.59,3.11c.17.87.29,1.65.4,2.48h0c.11-.83.27-1.69.43-2.57l.6-3h1.7l-1.91,7.38H47.77l-.62-3.17c-.14-.75-.26-1.44-.35-2.28h0c-.13.83-.25,1.53-.43,2.28l-.7,3.17Z"/><path class="cls-2" d="M56.74,26.33H54v1.75h3v1.37H52.35V22.07h4.56v1.37H54V25h2.71Z"/><path class="cls-2" d="M58.2,22.17A12.89,12.89,0,0,1,60.36,22a4.08,4.08,0,0,1,2.18.42,1.61,1.61,0,0,1,.88,1.45,1.66,1.66,0,0,1-1.21,1.57v0a1.85,1.85,0,0,1,1.47,1.82,2,2,0,0,1-.77,1.56,4.65,4.65,0,0,1-2.9.67,12.06,12.06,0,0,1-1.81-.11ZM59.85,25h.55c.88,0,1.35-.36,1.35-.9s-.43-.86-1.19-.86a4.94,4.94,0,0,0-.71,0Zm0,3.28a5.84,5.84,0,0,0,.65,0c.75,0,1.42-.28,1.42-1.06s-.67-1-1.5-1h-.57Z"/></svg>